<svg width="24" height="24" viewBox="0 0 24 24" fill="none" xmlns="http://www.w3.org/2000/svg">
<g clip-path="url(#clip0_729_199)">
<path fill-rule="evenodd" clip-rule="evenodd" d="M3.20389 8.93296C3.65394 8.97261 4.10399 8.69506 4.38527 8.34316C4.66187 7.98135 4.8447 7.49563 4.79782 7C4.39934 7.01983 3.90709 7.27755 3.62581 7.63936C3.36797 7.95161 3.14763 8.45715 3.20389 8.93296ZM8.55763 15.3167V7.58984H11.3001C12.7159 7.58984 13.7051 8.62075 13.7051 10.1275C13.7051 11.6342 12.6972 12.675 11.2626 12.675H9.69214V15.3167H8.55763ZM4.7931 9.02714C4.39662 9.00301 4.03484 9.1532 3.74262 9.27451C3.55457 9.35257 3.39533 9.41868 3.27418 9.41868C3.13823 9.41868 2.97241 9.34904 2.78624 9.27085C2.54229 9.16839 2.26338 9.05125 1.97091 9.05687C1.30052 9.06679 0.677014 9.46825 0.334788 10.1076C-0.368416 11.3863 0.151955 13.2796 0.831719 14.3205C1.16457 14.8359 1.56305 15.4009 2.08811 15.3811C2.31911 15.3719 2.48527 15.2974 2.65723 15.2202C2.85521 15.1314 3.06088 15.0391 3.38201 15.0391C3.692 15.0391 3.88867 15.129 4.07747 15.2152C4.25698 15.2973 4.42936 15.376 4.68528 15.3712C5.22909 15.3613 5.57132 14.8557 5.90417 14.3403C6.26336 13.7871 6.42121 13.2472 6.44517 13.1652L6.44798 13.1557C6.4474 13.1551 6.44297 13.153 6.43514 13.1492C6.31506 13.0911 5.39728 12.6469 5.38848 11.4557C5.37964 10.4559 6.11644 9.94937 6.23242 9.86962C6.23948 9.86477 6.24424 9.8615 6.24639 9.85979C5.77759 9.12626 5.04626 9.04696 4.7931 9.02714ZM15.7772 15.3761C16.4898 15.3761 17.1508 14.9945 17.4509 14.3898H17.4743V15.3166H18.5244V11.4705C18.5244 10.3554 17.6806 9.63672 16.382 9.63672C15.1772 9.63672 14.2864 10.3653 14.2536 11.3665H15.2756C15.36 10.8907 15.7772 10.5784 16.3492 10.5784C17.043 10.5784 17.4321 10.9204 17.4321 11.5498V11.9761L16.0163 12.0653C14.699 12.1496 13.9864 12.7195 13.9864 13.7108C13.9864 14.712 14.7224 15.3761 15.7772 15.3761ZM16.0819 14.4593C15.4771 14.4593 15.0927 14.152 15.0927 13.6811C15.0927 13.1954 15.4631 12.9129 16.171 12.8683L17.4321 12.7841V13.2202C17.4321 13.9438 16.8507 14.4593 16.0819 14.4593ZM22.0076 15.619C21.5529 16.972 21.0325 17.4181 19.9261 17.4181C19.8417 17.4181 19.5604 17.4082 19.4948 17.3884V16.4615C19.5651 16.4714 19.7386 16.4814 19.8277 16.4814C20.3293 16.4814 20.6106 16.2583 20.784 15.6784L20.8872 15.3365L18.9651 9.71106H20.1511L21.4872 14.2758H21.5107L22.8467 9.71106H24L22.0076 15.619ZM9.69204 8.60083H11C11.9845 8.60083 12.547 9.15594 12.547 10.1323C12.547 11.1087 11.9845 11.6688 10.9953 11.6688H9.69204V8.60083Z" fill="white"/>
</g>
<defs>
<clipPath id="clip0_729_199">
<rect width="24" height="24" fill="white"/>
</clipPath>
</defs>
</svg>
