<svg width="24" height="24" viewBox="0 0 24 24" fill="none" xmlns="http://www.w3.org/2000/svg">
<path d="M18.7627 16.2413L12.001 23.0031L5.24219 16.2452L5.23926 16.2413L7.72852 13.7589L12.001 18.0314L16.2773 13.755L18.7627 16.2413ZM14.5234 12.0021L12.001 14.5275L9.47852 12.005V11.9982L9.92188 11.5548L10.1377 11.3429L12.001 9.47961L14.5234 12.0021ZM23 12.0031L20.5146 14.4874L18.0293 12.0031L20.5146 9.5177L23 12.0031ZM5.9707 12.0011L3.48535 14.4865L1 12.0011L3.48535 9.51575L5.9707 12.0011ZM18.7627 7.76184L16.2773 10.2482L12.001 5.9718L7.72852 10.2443L5.24219 7.75891L12.001 1.00012L18.7627 7.76184Z" fill="#F3BA2F"/>
</svg>
