<svg width="24" height="24" viewBox="0 0 24 24" fill="none" xmlns="http://www.w3.org/2000/svg">
<path d="M21.5973 13.3491H21.6139L23.0153 9.83252H23.9996L20.9723 16.8823H20.0377L21.1637 14.4165L19.1774 9.83252H20.1617L21.5973 13.3491ZM16.859 9.67236C17.5285 9.67239 18.0577 9.85476 18.4459 10.2144C18.8341 10.574 19.025 11.0768 19.025 11.7104V14.73H18.1588V14.0513H18.1198C17.7428 14.6106 17.2472 14.8901 16.6227 14.8901C16.0938 14.8901 15.6432 14.7303 15.2887 14.4106C14.94 14.1138 14.7433 13.6737 14.7545 13.2114C14.7546 12.7036 14.946 12.3039 15.3229 12.0015C15.6999 11.699 16.2064 11.5503 16.8365 11.5503C17.3767 11.5503 17.8158 11.6531 18.1647 11.8472V11.6362C18.1647 11.3223 18.0289 11.0253 17.7926 10.8198C17.5507 10.603 17.2412 10.4829 16.9205 10.4829C16.4142 10.483 16.0148 10.7005 15.7223 11.1343L14.9235 10.6255C15.3511 9.992 15.9982 9.67236 16.859 9.67236ZM12.5651 7.57178C13.1446 7.56036 13.708 7.78282 14.1188 8.19385C14.94 8.97028 14.9902 10.2776 14.2194 11.1167C14.1858 11.1508 14.1523 11.1852 14.1188 11.2192C13.6968 11.6245 13.1783 11.8306 12.5651 11.8306H11.069V14.73H10.1627V7.57178H12.5651ZM16.9772 12.2925C16.6114 12.2925 16.3019 12.3841 16.0543 12.561C15.8124 12.738 15.6881 12.9607 15.6881 13.229C15.6882 13.4687 15.8013 13.6916 15.9869 13.8286C16.1894 13.9883 16.437 14.0735 16.6901 14.0679C17.0726 14.0679 17.4385 13.9139 17.7086 13.6401C18.0069 13.3547 18.1588 13.0175 18.1588 12.6294C17.8774 12.4012 17.4835 12.2868 16.9772 12.2925ZM11.069 10.9517H12.5885C12.9259 10.963 13.2524 10.8257 13.483 10.5806C13.9557 10.0839 13.9442 9.28375 13.4547 8.8042C13.2241 8.57613 12.9147 8.45073 12.5885 8.45068H11.069V10.9517Z" fill="white"/>
<path d="M7.94111 11.202C7.94111 10.9222 7.9186 10.6425 7.87358 10.3685H4.05286V11.9498H6.24175C6.15172 12.4579 5.85912 12.9146 5.43147 13.2V14.2276H6.73693C7.5022 13.514 7.94111 12.4579 7.94111 11.202Z" fill="#4285F4"/>
<path d="M4.05297 15.2209C5.1446 15.2209 6.06743 14.8556 6.73704 14.2276L5.43158 13.2C5.06583 13.4512 4.59879 13.5939 4.05297 13.5939C2.99509 13.5939 2.1004 12.8689 1.77966 11.8984H0.434814V12.9603C1.12131 14.3475 2.52243 15.2209 4.05297 15.2209Z" fill="#34A853"/>
<path d="M1.77982 11.8985C1.61098 11.3904 1.61098 10.8366 1.77982 10.3228V9.26672H0.434754C-0.144918 10.4256 -0.144918 11.7957 0.434754 12.9546L1.77982 11.8985Z" fill="#FBBC04"/>
<path d="M4.05297 8.62737C4.63255 8.61596 5.18962 8.8386 5.60602 9.24392L6.76518 8.06791C6.02804 7.37144 5.0602 6.98895 4.05297 7.00037C2.52243 7.00037 1.12131 7.87952 0.434814 9.26676L1.77966 10.3286C2.1004 9.35239 2.99509 8.62737 4.05297 8.62737Z" fill="#EA4335"/>
</svg>
