<svg width="24" height="24" viewBox="0 0 24 24" fill="none" xmlns="http://www.w3.org/2000/svg">
<path d="M16.7207 5C20.7406 5 24 8.22035 24 12.1924C23.9998 16.1642 20.7404 19.3838 16.7207 19.3838C14.9187 19.3837 13.2711 18.735 12 17.6631C10.7288 18.7352 9.08059 19.3838 7.27832 19.3838C3.25871 19.3836 0.000205766 16.1641 0 12.1924C0 8.22045 3.25859 5.00016 7.27832 5C9.08004 5 10.728 5.64824 11.999 6.71973C13.2701 5.64781 14.9187 5.00011 16.7207 5Z" fill="#ED0006"/>
<path d="M16.7216 5C20.7412 5.00022 23.9999 8.22048 23.9999 12.1924C23.9997 16.1641 20.7411 19.3836 16.7216 19.3838C14.9191 19.3838 13.2711 18.7344 11.9999 17.6621C13.5637 16.3431 14.5574 14.3832 14.5575 12.1924C14.5575 10.0011 13.5641 8.03984 11.9999 6.7207C13.2711 5.64871 14.9194 5 16.7216 5Z" fill="#F9A000"/>
<path d="M11.9993 6.72064C13.5638 8.03978 14.5569 10.0008 14.5569 12.1923C14.5568 14.3836 13.5636 16.3439 11.9993 17.663C10.4354 16.3439 9.44271 14.3832 9.44263 12.1923C9.44263 10.0012 10.4352 8.03978 11.9993 6.72064Z" fill="#FF5E00"/>
</svg>
