<svg width="24" height="24" viewBox="0 0 24 24" fill="none" xmlns="http://www.w3.org/2000/svg">
<path fill-rule="evenodd" clip-rule="evenodd" d="M6.00025 15.8235H3.9232L2.36567 9.70669C2.29174 9.42531 2.13477 9.17656 1.90388 9.05932C1.32765 8.76469 0.692687 8.53022 0 8.41196V8.17646H3.34596C3.80775 8.17646 4.1541 8.53022 4.21182 8.94106L5.01996 13.3533L7.09599 8.17646H9.11532L6.00025 15.8235ZM10.2698 15.8235H8.3082L9.92346 8.17646H11.8851L10.2698 15.8235ZM14.4229 10.2949C14.4806 9.88303 14.827 9.64753 15.231 9.64753C15.866 9.5884 16.5577 9.70666 17.1349 10.0003L17.4812 8.35382C16.904 8.11832 16.269 8.00006 15.6928 8.00006C13.7889 8.00006 12.4036 9.0593 12.4036 10.5294C12.4036 11.6477 13.3849 12.235 14.0776 12.5887C14.827 12.9415 15.1156 13.177 15.0579 13.5297C15.0579 14.0588 14.4806 14.2943 13.9044 14.2943C13.2117 14.2943 12.519 14.1179 11.8851 13.8233L11.5387 15.4708C12.2314 15.7644 12.9808 15.8826 13.6735 15.8826C15.8083 15.9407 17.1349 14.8825 17.1349 13.2942C17.1349 11.294 14.4229 11.1767 14.4229 10.2949ZM24 15.8235L22.4425 8.17646H20.7695C20.4231 8.17646 20.0768 8.41196 19.9613 8.76469L17.0772 15.8235H19.0965L19.4996 14.7062H21.9807L22.2116 15.8235H24ZM21.0581 10.2357L21.6343 13.1178H20.0191L21.0581 10.2357Z" fill="white"/>
</svg>
