<svg width="198" height="50" viewBox="0 0 198 50" fill="none" xmlns="http://www.w3.org/2000/svg">
<path d="M10.6572 15.3753C9.23849 15.3753 8.11665 15.9952 7.35777 17.2004C6.56591 18.4057 6.16997 20.0929 6.16997 22.2279C6.16997 26.6701 7.78671 28.9084 11.0201 28.9084C12.01 28.9084 12.9339 28.7362 13.8908 28.4952C14.7815 28.2196 15.7384 27.8753 16.6623 27.4621V32.7651C14.8146 33.5916 12.7029 34.0049 10.3932 34.0049C7.02783 34.0049 4.48725 33.0061 2.73854 30.9745C0.989837 28.9428 0 26.0158 0 22.1935C0 19.783 0.461924 17.6825 1.31978 15.8574C2.17764 14.0324 3.43143 12.655 5.01516 11.6563C6.5989 10.6577 8.57857 10.1756 10.7232 10.1756C13.1318 10.1756 15.3754 10.6921 17.586 11.7941L15.7384 16.7183C14.9465 16.3051 14.0887 15.9952 13.2968 15.7196C12.4389 15.4786 11.548 15.3753 10.6572 15.3753ZM36.9539 24.7072C36.9539 27.6343 36.195 29.9415 34.7102 31.56C33.1925 33.1784 31.1138 34.0049 28.4082 34.0049C25.7028 34.0049 23.756 33.1784 22.2053 31.491C20.6546 29.8037 19.8957 27.5654 19.8957 24.6728C19.8957 21.7803 20.6546 19.5076 22.1393 17.8546C23.657 16.2362 25.8017 15.4098 28.5072 15.4098C30.2229 15.4098 31.6748 15.7885 32.9616 16.5117C34.2813 17.2349 35.271 18.3367 35.964 19.7485C36.6239 21.1949 36.9539 22.8134 36.9539 24.7072ZM25.8347 24.7072C25.8347 26.2225 26.0327 27.4276 26.4286 28.2196C26.8245 29.0117 27.4844 29.4249 28.4412 29.4249C29.3321 29.4249 29.992 29.0117 30.388 28.2196C30.7839 27.3933 30.9488 26.2225 30.9488 24.7072C30.9488 23.1921 30.7509 22.0558 30.388 21.2637C29.992 20.4718 29.3321 20.1274 28.4412 20.1274C27.5504 20.1274 26.8904 20.5061 26.4946 21.2637C26.0327 21.9869 25.8347 23.1233 25.8347 24.7072ZM46.2913 33.6949H40.3853V15.7885H46.2913V33.6949ZM40.2202 11.312C40.2202 10.3822 40.4842 9.6935 40.9792 9.21141C41.4741 8.72932 42.2989 8.52271 43.3877 8.52271C44.4766 8.52271 45.3015 8.72932 45.7964 9.21141C46.2913 9.6935 46.5553 10.3478 46.5553 11.2431C46.5553 13.0682 45.4994 13.9635 43.3877 13.9635C41.2762 14.0324 40.2202 13.137 40.2202 11.312ZM61.2708 33.6949V23.9152C61.2708 22.71 61.1057 21.8147 60.7758 21.2637C60.4789 20.644 59.9181 20.334 59.2251 20.334C58.2353 20.334 57.5095 20.7473 57.0805 21.5736C56.6186 22.4001 56.4206 23.812 56.4206 25.878V33.7293H50.5146V15.8229H54.9689L55.7277 18.0269H56.0907C56.5856 17.2004 57.2785 16.5461 58.2023 16.1329C59.0932 15.7196 60.116 15.513 61.3037 15.513C63.2174 15.513 64.6693 16.0985 65.725 17.2349C66.7809 18.3712 67.3417 20.0242 67.3417 22.0902V33.7637H61.3368L61.2708 33.6949ZM84.4988 28.2196C84.4988 30.148 83.9051 31.56 82.6512 32.5585C81.3973 33.5571 79.5828 34.0393 77.2401 34.0393C75.9863 34.0393 74.8975 33.9703 73.9407 33.8327C72.9839 33.6605 72.027 33.4194 71.0701 33.0407V28.0819C71.961 28.4952 72.9839 28.874 74.0727 29.1151C75.1615 29.3905 76.1183 29.5282 77.0423 29.5282C78.362 29.5282 78.9558 29.2183 78.9558 28.5985C78.9558 28.2885 78.7578 28.013 78.395 27.772C78.032 27.5309 76.9762 27.0488 75.2935 26.2912C73.7428 25.6026 72.6209 24.8794 71.9939 23.9842C71.4 23.0888 71.0372 22.0558 71.0372 20.6784C71.0372 18.991 71.6311 17.6825 72.8848 16.8216C74.1387 15.8918 75.8544 15.4098 78.098 15.4098C79.2528 15.4098 80.3086 15.5819 81.2654 15.8229C82.2553 16.0985 83.3112 16.4428 84.3669 16.9249L82.7502 20.8849C81.9583 20.5061 81.1335 20.1962 80.2426 19.9552C79.3518 19.6798 78.6259 19.542 78.098 19.542C77.1411 19.542 76.6462 19.8175 76.6462 20.2651C76.6462 20.5751 76.8112 20.8505 77.1411 21.0571C77.4711 21.2637 78.461 21.677 80.1106 22.3657C81.2985 22.8821 82.2223 23.3987 82.7832 23.8809C83.3771 24.3629 83.839 24.9827 84.1029 25.6715C84.334 26.4291 84.4988 27.2211 84.4988 28.2196ZM98.0594 34.0049C97.2022 34.0049 96.4102 33.8326 95.7169 33.5916C95.0246 33.2817 94.364 32.7651 93.6717 31.973H93.4071C93.6056 33.2128 93.6717 34.0049 93.6717 34.3148V41.4772H87.7654V15.7885H92.5824L93.4406 18.0958H93.7044C94.7936 16.374 96.3114 15.4786 98.2579 15.4786C100.204 15.4786 101.656 16.3051 102.712 17.9235C103.801 19.542 104.328 21.8492 104.328 24.6728C104.328 27.4966 103.767 29.8382 102.613 31.5254C101.491 33.1784 99.9733 34.0049 98.0594 34.0049ZM96.0804 20.2996C95.2222 20.2996 94.5624 20.6094 94.2326 21.2982C93.8692 21.918 93.6717 22.9167 93.6717 24.1908V24.6728C93.6717 26.1879 93.8692 27.3243 94.2652 28.013C94.6612 28.7018 95.2548 29.0461 96.1129 29.0461C96.8724 29.0461 97.4323 28.7362 97.7631 28.0475C98.1255 27.3588 98.2579 26.2225 98.2579 24.6384C98.2579 23.0544 98.0929 22.0212 97.7631 21.3326C97.4323 20.644 96.8724 20.2996 96.0804 20.2996ZM116.009 34.0049C113.138 34.0049 110.961 33.2128 109.344 31.6633C107.793 30.0792 107.002 27.8065 107.002 24.8451C107.002 21.8836 107.76 19.5076 109.212 17.8891C110.663 16.2707 112.775 15.4442 115.48 15.4442C118.187 15.4442 120.034 16.1329 121.452 17.5448C122.872 18.9566 123.564 20.9538 123.564 23.6053V26.3946H112.973C113.039 27.3933 113.369 28.1852 114.029 28.7362C114.688 29.3216 115.58 29.5627 116.735 29.5627C117.791 29.5627 118.748 29.4593 119.604 29.2527C120.496 29.0461 121.419 28.6674 122.476 28.2196V32.6618C121.519 33.144 120.562 33.4883 119.604 33.6949C118.583 33.9015 117.362 34.0049 116.009 34.0049ZM115.68 19.6797C114.986 19.6797 114.359 19.8863 113.93 20.3685C113.468 20.8505 113.171 21.5049 113.138 22.5034H118.252C118.252 21.6082 117.988 20.9194 117.56 20.4029C117.032 19.9552 116.405 19.6797 115.68 19.6797ZM138.082 33.6949L136.928 31.3533H136.828C136.036 32.3863 135.211 33.0751 134.387 33.4538C133.529 33.8327 132.473 34.0393 131.187 34.0393C129.569 34.0393 128.283 33.5227 127.391 32.5242C126.435 31.5254 125.973 30.0792 125.973 28.2196C125.973 26.3602 126.633 24.8794 127.887 23.9842C129.14 23.0544 130.988 22.5034 133.397 22.4001L136.267 22.2969V22.0212C136.267 20.5407 135.575 19.8175 134.156 19.8175C132.902 19.8175 131.285 20.2307 129.404 21.126L127.689 17.0282C129.701 15.9263 132.209 15.4098 135.244 15.4098C137.455 15.4098 139.171 15.9952 140.359 17.1316C141.546 18.2679 142.173 19.8519 142.173 21.8836V33.5916H138.116L138.082 33.6949ZM133.727 29.6316C134.419 29.6316 135.047 29.356 135.575 28.9084C136.069 28.4263 136.334 27.8065 136.334 27.0833V25.6715L134.981 25.7403C133.035 25.8092 132.077 26.5668 132.077 27.9787C132.012 29.1151 132.572 29.6316 133.727 29.6316ZM151.972 23.6053C152.666 22.4001 153.293 21.5047 153.82 20.8161L157.68 15.7541H164.313L158.34 23.3987L164.643 33.6949H157.878L154.118 27.2554L152.203 28.7707V33.626H146.231V9.03924H152.203V18.7155C152.203 20.4029 152.105 22.0212 151.841 23.5709H151.972V23.6053ZM174.97 34.0049C172.099 34.0049 169.922 33.2128 168.305 31.6633C166.754 30.0792 165.962 27.8065 165.962 24.8451C165.962 21.8836 166.722 19.5076 168.173 17.8891C169.625 16.2707 171.736 15.4442 174.443 15.4442C177.148 15.4442 178.994 16.1329 180.414 17.5448C181.833 18.9566 182.525 20.9538 182.525 23.6053V26.3946H171.901C171.967 27.3933 172.297 28.1852 172.957 28.7362C173.618 29.3216 174.508 29.5627 175.662 29.5627C176.719 29.5627 177.675 29.4593 178.534 29.2527C179.424 29.0461 180.347 28.6674 181.403 28.2196V32.6618C180.447 33.144 179.491 33.4883 178.534 33.6949C177.543 33.9015 176.322 34.0049 174.97 34.0049ZM174.607 19.6797C173.914 19.6797 173.286 19.8863 172.859 20.3685C172.396 20.8505 172.099 21.5049 172.067 22.5034H177.181C177.181 21.6082 176.917 20.9194 176.487 20.4029C175.96 19.9552 175.366 19.6797 174.607 19.6797ZM196.185 15.4442C196.681 15.4442 197.175 15.513 197.637 15.5475L198 15.6163L197.439 21.436C196.944 21.3326 196.285 21.2293 195.426 21.2293C194.107 21.2293 193.182 21.5393 192.622 22.1591C192.028 22.7788 191.731 23.6742 191.731 24.8105V33.5916H185.826V15.6852H190.246L191.138 18.5778H191.434C191.929 17.648 192.622 16.856 193.48 16.2707C194.437 15.7541 195.328 15.4442 196.185 15.4442Z" fill="white"/>
</svg>
