<svg width="93" height="24" viewBox="0 0 93 24" fill="none" xmlns="http://www.w3.org/2000/svg">
<path d="M0 7.8232C0 3.50257 3.50257 0 7.8232 0H24V16.1768C24 20.4974 20.4974 24 16.1768 24H0V7.8232Z" fill="url(#paint0_linear_629_5748)"/>
<path fill-rule="evenodd" clip-rule="evenodd" d="M10.2098 4.96505C9.3225 5.21473 8.69466 5.50405 7.9903 5.9875C7.27905 6.47572 6.09934 7.65544 6.09934 7.87833C6.09934 7.95895 6.69603 8.28315 7.42531 8.59899C8.15459 8.91471 8.75127 9.22008 8.75127 9.27736C8.75127 9.33477 8.66403 9.45411 8.55742 9.54268C7.92692 10.0659 7.61943 12.3305 8.02584 13.4584C8.13086 13.7501 8.21784 14.0005 8.2189 14.0146C8.21996 14.0288 7.68387 14.4083 7.02752 14.8578C6.37116 15.3075 5.83415 15.723 5.83415 15.7814C5.83415 16.0089 6.93324 17.2617 7.59278 17.7858C10.8238 20.3536 15.6635 19.6577 18.0322 16.2846C18.5926 15.4867 19.344 13.8599 19.211 13.7325C19.1831 13.7056 18.1349 13.5092 16.882 13.296L14.6038 12.9083L14.204 13.4752C12.7998 15.4675 9.73793 14.6373 9.57908 12.2211C9.51583 11.2593 9.90951 10.4422 10.7012 9.89221C11.8893 9.06679 13.6446 9.50529 14.3308 10.7989C14.5072 11.1312 14.6859 11.4031 14.7281 11.4031C14.8202 11.4031 18.8481 9.57146 18.925 9.49468C18.9545 9.46511 18.7877 9.06282 18.5543 8.60045C17.7124 6.93278 15.8534 5.46348 13.9619 4.97075C13.0514 4.73367 11.0428 4.73048 10.2098 4.96505ZM49.7789 5.44664C49.302 5.58467 49.0607 6.02397 49.0607 6.75378C49.0607 7.56593 49.402 7.87316 50.314 7.88204C50.9793 7.88841 51.1101 7.84518 51.3828 7.52827C51.7743 7.0736 51.7676 6.08894 51.3705 5.70971C51.0566 5.40991 50.324 5.28885 49.7789 5.44664ZM82.503 11.3705C82.5379 16.7882 82.5621 17.3475 82.7752 17.6726C83.1826 18.2938 83.6089 18.4752 84.8097 18.5382L85.9225 18.5967V17.7181V16.8396H85.3273H84.732L84.6975 11.1711L84.6629 5.5026L83.5638 5.46401L82.4647 5.42542L82.503 11.3705ZM32.2209 6.14264C31.1906 6.38357 30.5183 6.76916 29.8119 7.52443C29.0886 8.29787 28.8967 8.64527 28.5229 9.85906C28.1235 11.1563 28.1238 13.7733 28.5234 15.0688C29.1899 17.2285 30.4654 18.3403 32.6912 18.7017C34.6395 19.0178 36.4861 18.243 37.5713 16.6542C37.8549 16.2389 38.065 15.882 38.0379 15.8612C37.7523 15.64 36.3279 14.8507 36.2146 14.8507C36.133 14.8507 36.0662 14.9265 36.0662 15.0193C36.0662 15.3357 35.2243 16.2103 34.6833 16.456C33.1196 17.1662 31.3611 16.4219 30.8478 14.8325C30.5376 13.872 30.5499 10.7852 30.8673 9.93305C31.3378 8.6698 32.151 8.08823 33.4466 8.08823C34.6392 8.08823 35.1791 8.39957 35.9336 9.52226L36.1325 9.81822L37.0828 9.31581L38.0331 8.81353L37.7247 8.30237C37.1971 7.42816 36.3266 6.6469 35.561 6.3605C34.6498 6.01959 33.1619 5.92253 32.2209 6.14264ZM10.8328 6.63351C10.5557 6.70366 9.99397 6.91939 9.58478 7.11298L8.84078 7.46489L9.48122 7.79042C10.0772 8.09327 10.1595 8.10348 10.6631 7.93641C10.9607 7.83762 11.6518 7.76058 12.1988 7.76536C13.3674 7.77557 14.136 8.06781 14.9656 8.81711C15.5422 9.33822 15.8297 9.36819 16.3756 8.96443C16.6335 8.77362 16.6245 8.75148 16.0441 8.15519C15.7137 7.81574 15.0329 7.33681 14.5184 7.08182C13.7343 6.69305 13.414 6.6123 12.4632 6.56377C11.8437 6.53208 11.11 6.5635 10.8328 6.63351ZM87.9115 7.87316C87.9115 9.14516 87.8473 9.24394 86.9807 9.3056L86.3866 9.3479V10.2098V11.0717L87.0828 11.1117L87.7789 11.1519L87.7792 14.0951C87.7793 16.6334 87.8112 17.1018 88.0112 17.4981C88.3835 18.2364 88.9597 18.4818 90.4607 18.5422L91.7568 18.5943V17.723V16.8517L90.8618 16.8126L89.9667 16.7733L89.9309 13.9556L89.8951 11.138H90.8923H91.8894V10.2098V9.2816H90.8949H89.9004V8.02193V6.76226H88.906H87.9115V7.87316ZM41.6782 9.3662C38.3416 10.5484 38.0269 16.6603 41.219 18.2888C42.0104 18.6925 43.1735 18.8534 44.0932 18.6864C45.5772 18.417 46.6616 17.4952 47.2056 16.0406C47.4616 15.3563 47.491 15.0655 47.4435 13.6959C47.3979 12.3822 47.3378 12.0265 47.0679 11.4694C46.3325 9.95214 44.9685 9.13999 43.1882 9.15948C42.6623 9.16518 41.9828 9.25826 41.6782 9.3662ZM57.4806 9.36938C56.9031 9.67382 56.5317 10.0459 56.3309 10.5212L56.1546 10.9391L56.0883 10.1435L56.022 9.3479L54.9281 9.30945L53.8341 9.27086V13.9172V18.5634H54.9612H56.0883V15.2506V11.9378L56.4663 11.5145C56.795 11.1467 56.9486 11.0839 57.6411 11.0337C59.2971 10.914 59.4032 11.1755 59.4032 15.3768V18.5634H60.5414H61.6795L61.632 14.9501C61.5811 11.0732 61.5248 10.7262 60.8223 9.96209C60.1249 9.2035 58.3815 8.89429 57.4806 9.36938ZM65.3809 9.35917C64.5206 9.67144 64.0827 10.0473 63.7117 10.7917C63.1017 12.016 63.3993 13.4471 64.4017 14.1105C64.9065 14.4446 66.0442 14.7674 67.2503 14.9188C68.4577 15.0704 68.9435 15.93 68.2269 16.6467C67.9495 16.9242 67.7784 16.9718 67.0666 16.9693C66.1347 16.9661 65.3968 16.69 64.7869 16.1164L64.4025 15.7551L63.7261 16.438L63.0496 17.1208L63.58 17.5771C64.9846 18.7855 67.1079 19.1166 68.829 18.3955C70.3255 17.7685 71.0542 16.1502 70.47 14.7517C70.0396 13.7219 69.4254 13.3711 67.4232 13.0119C66.6006 12.8644 65.9158 12.6688 65.7934 12.5463C65.5115 12.2644 65.5225 11.459 65.8124 11.1692C65.9857 10.9958 66.2651 10.9391 66.9445 10.9391C67.7352 10.9391 67.9338 10.9933 68.5537 11.3786L69.2608 11.8183L69.8619 11.2172L70.463 10.6161L70.1449 10.2775C69.9698 10.0912 69.4986 9.77831 69.0975 9.58207C68.172 9.12925 66.3204 9.01813 65.3809 9.35917ZM49.3259 13.9225V18.5634H50.3866H51.4474V13.9225V9.2816H50.3866H49.3259V13.9225ZM72.2887 12.8949C72.3281 16.2253 72.353 16.5548 72.6076 17.1048C73.1933 18.37 74.456 18.9816 75.8606 18.6803C76.5712 18.5278 77.4826 17.8509 77.6386 17.3597C77.7953 16.8656 77.9667 17.1133 77.9667 17.8341V18.5634H79.0275H80.0883V13.9225V9.2816H79.0275H77.9667V12.4019C77.9667 16.0501 77.9115 16.2994 77.0105 16.7083C76.3249 17.0194 75.9844 17.034 75.3721 16.7781C74.5876 16.4503 74.5192 16.1044 74.5192 12.4682V9.2816H73.3826H72.2461L72.2887 12.8949ZM4.98288 10.3353C4.86765 10.842 4.77457 11.6327 4.77589 12.0923C4.77868 12.9731 5.04971 14.2643 5.22659 14.239C5.284 14.2308 5.62995 14.0007 5.99552 13.7278L6.66023 13.2317L6.57523 12.5908C6.52325 12.1994 6.56807 11.5761 6.69046 10.9893C6.80064 10.461 6.87675 10.0236 6.85965 10.0172C6.84254 10.0108 6.54354 9.87258 6.19521 9.70989C5.84688 9.54732 5.47879 9.4142 5.37709 9.4142C5.25709 9.4142 5.11905 9.73667 4.98288 10.3353ZM42.4335 11.0976C42.1797 11.2292 41.8365 11.5396 41.6711 11.7874C41.3967 12.1981 41.3701 12.3905 41.3701 13.9596C41.3701 15.9048 41.5153 16.3251 42.3405 16.7696C42.9575 17.1019 44.0327 16.9981 44.5076 16.5604C45.0805 16.032 45.2154 15.5237 45.2154 13.8916C45.2154 12.2657 45.048 11.7177 44.4064 11.2424C43.917 10.8799 42.9852 10.8116 42.4335 11.0976ZM15.0637 15.1851C14.0273 16.1004 12.757 16.4892 11.4653 16.2867C10.717 16.1693 9.81417 15.792 9.38933 15.4188C9.18898 15.2429 9.11459 15.2613 8.67662 15.5952L8.18774 15.9682L8.63525 16.3524C9.24188 16.8734 10.2402 17.3183 11.2292 17.5086C13.0629 17.8614 15.3202 16.971 16.4553 15.4473L16.8504 14.917L16.5466 14.8308C15.9164 14.6518 15.5752 14.7333 15.0637 15.1851Z" fill="#FDFFFE"/>
<defs>
<linearGradient id="paint0_linear_629_5748" x1="0.634699" y1="-5.7163e-07" x2="23.3653" y2="24" gradientUnits="userSpaceOnUse">
<stop stop-color="#3A8F77"/>
<stop offset="1" stop-color="#1F7A88"/>
</linearGradient>
</defs>
</svg>
