<svg width="140" height="24" viewBox="0 0 140 24" fill="none" xmlns="http://www.w3.org/2000/svg">
<path fill-rule="evenodd" clip-rule="evenodd" d="M10.2273 0.0856095C5.47974 0.731504 1.54344 4.31485 0.345333 9.08155C-0.116052 10.9173 -0.115081 13.0795 0.348077 14.9162C1.57379 19.7775 5.56851 23.3317 10.4904 23.9402C10.7568 23.9731 11.3619 24 11.8351 24C12.3083 24 12.9135 23.9731 13.1798 23.9402C15.2154 23.6885 17.1499 22.9188 18.7749 21.7139C19.3904 21.2576 20.0384 20.6372 20.1317 20.4151C20.4147 19.741 19.8589 18.9129 19.1233 18.9129C18.791 18.9129 18.5807 19.0231 18.094 19.4523C16.8703 20.5315 15.3132 21.299 13.607 21.6637C13.0547 21.7818 12.829 21.7979 11.7494 21.7958C10.6959 21.7937 10.4348 21.775 9.92029 21.6645C8.20667 21.2967 6.63109 20.5042 5.39537 19.3885C5.12295 19.1426 4.83173 18.8583 4.74816 18.7568L4.59623 18.5721L7.10105 14.5533L9.60592 10.5345L9.63736 12.8517C9.66702 15.0364 9.676 15.1905 9.79397 15.5454C10.2592 16.9451 11.5524 17.2429 12.6237 16.1969C13.0329 15.7974 13.1841 15.5703 14.9261 12.7399L16.3507 10.4253L16.3848 12.0826C16.4153 13.5569 16.4329 13.7863 16.5435 14.1589C17.0331 15.8071 18.2503 16.7999 19.7779 16.7971C21.6162 16.7938 23.1223 15.442 23.5588 13.4036C23.661 12.9263 23.6732 11.4021 23.5809 10.634C23.0451 6.17674 20.173 2.403 16.0934 0.795979C14.6604 0.231478 13.3495 -0.0101889 11.778 0.000328324C11.2435 0.00392933 10.5457 0.0422831 10.2273 0.0856095ZM10.8348 2.22198C7.5518 2.60294 4.7393 4.55348 3.22648 7.49859C2.13743 9.61884 1.86067 12.1666 2.46621 14.4974C2.60911 15.0473 2.97047 16.0209 3.17058 16.395L3.27604 16.5922L3.52851 16.1949C3.66735 15.9764 4.95011 13.9224 6.37908 11.6305C7.80805 9.33853 9.08772 7.33998 9.22278 7.18931C9.35825 7.03824 9.60821 6.84687 9.78003 6.76284C10.1988 6.55793 10.7029 6.57834 11.0599 6.81463C11.3106 6.9805 11.59 7.36776 11.7045 7.70774C11.7517 7.84778 11.7821 8.78627 11.8038 10.7654L11.8351 13.621L13.2499 11.357C14.7843 8.90156 15.1208 8.42822 15.5892 8.06681C16.0433 7.71654 16.3436 7.59805 16.7794 7.59725C17.5538 7.59576 18.159 8.1059 18.4389 8.99581C18.4873 9.1498 18.5237 9.8868 18.5504 11.2536C18.5937 13.48 18.6164 13.6401 18.9544 14.1066C19.3757 14.6883 20.1777 14.7125 20.8026 14.1623C21.4159 13.6226 21.6171 12.6911 21.4627 11.1063C21.0265 6.62795 17.7862 3.09062 13.4008 2.3056C12.8122 2.20026 11.4146 2.1547 10.8348 2.22198ZM35.9847 7.07385C33.9002 7.52906 32.3093 9.05491 31.746 11.1393C31.5676 11.7994 31.555 13.1742 31.7214 13.8245C32.3106 16.1269 34.1133 17.7525 36.4175 18.0593C37.3717 18.1863 38.4088 18.0126 39.3461 17.5685C39.9148 17.2992 40.4942 16.9146 40.8158 16.593C41.5468 15.862 40.7367 14.6536 39.7828 15.0522C39.6732 15.098 39.4618 15.2367 39.3131 15.3604C38.9105 15.6952 38.4593 15.9264 37.9577 16.0547C36.374 16.4597 34.8486 15.7914 34.1636 14.3924C33.8443 13.7402 33.7513 13.3439 33.748 12.6209C33.7439 11.7144 33.9499 11.0249 34.4357 10.3188C34.8119 9.77197 35.5162 9.28669 36.1872 9.1119C36.6239 8.99815 37.5006 8.99935 37.9441 9.1143C38.3045 9.20764 39.0304 9.54122 39.1925 9.688C39.4339 9.90641 40.0004 9.85153 40.3099 9.57975C40.828 9.12488 40.7733 8.35397 40.1926 7.9262C39.83 7.65909 38.9782 7.26624 38.4711 7.13226C37.8123 6.9581 36.6406 6.93061 35.9847 7.07385ZM51.3175 7.11317C50.4658 7.53763 50.3905 8.72431 51.1801 9.2792C51.4046 9.43708 51.4687 9.45308 51.8749 9.45308C52.281 9.45308 52.3451 9.43708 52.5696 9.2792C53.1963 8.8388 53.2999 8.00245 52.8001 7.41857C52.4074 6.9597 51.8541 6.84578 51.3175 7.11317ZM116.711 7.026C114.604 7.40239 112.857 9.00095 112.283 11.0764C112.132 11.6248 112.076 12.8503 112.175 13.4648C112.455 15.1969 113.587 16.7227 115.178 17.5129C117.018 18.426 118.998 18.2681 120.736 17.0697C121.208 16.7449 121.531 16.4117 121.586 16.1959C121.643 15.9662 121.575 15.5432 121.454 15.3768C121.316 15.1862 120.895 14.9685 120.668 14.9702C120.446 14.9718 120.113 15.1368 119.756 15.4215C118.977 16.0437 117.842 16.3113 116.853 16.1065C115.965 15.9228 115.077 15.2263 114.674 14.3973C114.368 13.7693 114.27 13.3317 114.27 12.5968C114.27 11.4711 114.59 10.6574 115.316 9.9375C115.977 9.2824 116.616 9.02439 117.579 9.02439C118.335 9.02439 118.943 9.21479 119.78 9.71252C120.222 9.9762 120.868 9.74082 121.099 9.23108C121.244 8.91213 121.235 8.70041 121.063 8.35472C120.95 8.12791 120.838 8.01125 120.563 7.83223C119.666 7.24915 118.907 7.02023 117.779 6.99222C117.355 6.98171 116.874 6.99691 116.711 7.026ZM63.891 7.16999L63.7639 7.25893V12.2313C63.7639 17.5765 63.7521 17.3451 64.0423 17.6757C64.4599 18.1516 65.3344 18.0714 65.6968 17.5241L65.8502 17.2924L65.8788 14.7022L65.9074 12.1121L67.1934 13.5164C67.9008 14.2887 68.5489 14.9572 68.6338 15.0019C68.845 15.1132 68.9985 15.104 69.2447 14.9656C69.3597 14.901 70.0191 14.2324 70.7101 13.48L71.9662 12.1118L71.9948 14.7021L72.0233 17.2924L72.1768 17.5241C72.5782 18.1305 73.4715 18.1491 73.9206 17.5603L74.0811 17.3499L74.0968 12.3155L74.1126 7.28105L73.9905 7.18102C73.8273 7.04738 73.6439 7.05487 73.4559 7.20274C73.3707 7.26973 72.3652 8.37369 71.2213 9.65599C70.0774 10.9383 69.09 12.0038 69.027 12.0238C68.964 12.0438 68.8624 12.0333 68.8011 12.0005C68.7399 11.9678 67.7758 10.9152 66.6586 9.66154C65.5415 8.40788 64.5469 7.31437 64.4485 7.23155C64.2448 7.06013 64.0746 7.04132 63.891 7.16999ZM91.399 7.21989C91.27 7.29722 91.107 7.46618 91.0275 7.60514L90.8858 7.85263V12.5111C90.8858 16.9892 90.89 17.1781 90.9954 17.3905C91.1303 17.6621 91.4736 17.9194 91.7674 17.969C92.2028 18.0426 92.685 17.8032 92.9027 17.4056C92.9846 17.2561 93.0053 17.0078 93.0292 15.8933L93.0578 14.5599L94.3712 16.085C95.0936 16.9237 95.7571 17.671 95.8456 17.7455C96.0939 17.9544 96.4115 18.0306 96.6883 17.9476C96.9556 17.8675 97.2842 17.5972 97.41 17.3537C97.5115 17.1576 97.5273 16.7774 97.4426 16.5694C97.4107 16.4908 96.93 15.8776 96.3744 15.2067C95.3734 13.9979 95.3652 13.9859 95.4685 13.8652C95.5259 13.7982 95.9609 13.3182 96.4354 12.7986C96.9098 12.2789 97.3278 11.7976 97.3642 11.7289C97.4007 11.6602 97.4304 11.4788 97.4304 11.3257C97.4304 10.9465 97.1933 10.572 96.8473 10.4044C96.546 10.2586 96.4116 10.2523 96.1283 10.3707C95.8488 10.4874 95.8009 10.5349 94.3237 12.1626L93.0578 13.5574L93.0292 10.6722L93.0006 7.78696L92.8434 7.54941C92.5365 7.08585 91.8745 6.93478 91.399 7.21989ZM107.87 7.16473C107.748 7.208 107.572 7.3162 107.477 7.40514C107.174 7.68939 107.147 7.82617 107.147 9.07366V10.2126L106.7 10.233C106.315 10.2504 106.223 10.2758 106.043 10.4135C105.764 10.6263 105.64 10.8762 105.638 11.2323C105.635 11.8237 106.101 12.2253 106.789 12.2253H107.138L107.163 14.1258C107.183 15.7101 107.204 16.083 107.287 16.3668C107.653 17.6237 108.389 18.1115 109.92 18.1119C110.171 18.112 110.471 18.0859 110.586 18.0541C110.85 17.9806 111.187 17.6138 111.237 17.3444C111.364 16.6692 110.867 16.1732 110.061 16.1705C109.618 16.169 109.465 16.0826 109.374 15.7818C109.336 15.6571 109.297 14.8771 109.278 13.8972L109.247 12.2253L109.726 12.2249C110.36 12.2245 110.58 12.1566 110.825 11.8844C111.183 11.4891 111.211 11.0098 110.9 10.6029C110.673 10.3051 110.442 10.2247 109.811 10.2247H109.262V9.07972C109.262 8.24732 109.241 7.88424 109.185 7.74986C109.083 7.50557 108.747 7.21617 108.478 7.14158C108.205 7.06573 108.141 7.06819 107.87 7.16473ZM44.8729 10.3093C43.6678 10.5746 42.6843 11.338 42.1364 12.4333C40.8867 14.9316 42.6939 17.974 45.5017 18.0988C46.5561 18.1456 47.3792 17.8361 48.1639 17.0978C48.6901 16.6028 49.0569 16.0459 49.2837 15.3976C49.4292 14.9815 49.4437 14.8683 49.4444 14.1401C49.445 13.3901 49.434 13.309 49.269 12.8473C48.6023 10.9824 46.7288 9.90075 44.8729 10.3093ZM58.035 10.3136C57.6117 10.4162 57.1733 10.6372 56.8359 10.9179L56.567 11.1418L56.5079 10.9225C56.3708 10.4131 55.7328 10.1709 55.2743 10.4543C54.8972 10.6874 54.9043 10.6177 54.9043 14.0947V17.2329L55.0693 17.493C55.5137 18.1938 56.5328 18.1555 56.9062 17.424C56.9985 17.2432 57.012 17.0153 57.031 15.3092C57.0515 13.4869 57.0585 13.3818 57.1811 13.0728C57.3283 12.7022 57.6371 12.3897 57.9626 12.2823C58.2708 12.1806 58.9342 12.2352 59.2293 12.3864C59.7746 12.666 59.8193 12.866 59.8196 15.0326C59.8199 16.9252 59.857 17.286 60.0808 17.5794C60.553 18.1986 61.5365 18.1028 61.8745 17.4048C61.9975 17.1506 61.9991 17.113 61.9781 14.9861C61.9599 13.1481 61.942 12.7745 61.8575 12.4845C61.5189 11.3204 60.7652 10.5638 59.6919 10.3108C59.25 10.2066 58.471 10.2079 58.035 10.3136ZM78.1108 10.3166C76.8505 10.655 75.9176 11.6275 75.5285 13.0084C75.432 13.3509 75.403 13.6065 75.4035 14.1115C75.4042 14.9128 75.5085 15.3658 75.8624 16.104C76.485 17.4029 77.8222 18.2147 79.137 18.092C79.9853 18.0127 80.7596 17.6984 81.2059 17.2522L81.4753 16.9827L81.5143 17.219C81.5357 17.349 81.5948 17.5266 81.6455 17.6137C81.7469 17.7876 82.1276 17.9983 82.3405 17.9983C82.5893 17.9983 82.9415 17.7816 83.0731 17.5476C83.1972 17.3267 83.1979 17.3081 83.1979 14.1734C83.1979 10.7255 83.2032 10.7838 82.8611 10.4958C82.3834 10.0939 81.6686 10.3476 81.5661 10.9552C81.4928 11.3905 81.4855 11.4 81.3483 11.2406C81.0071 10.8443 80.368 10.4659 79.7846 10.3147C79.3528 10.2028 78.5313 10.2037 78.1108 10.3166ZM88.2951 10.2859C87.9285 10.358 87.4414 10.5979 87.0704 10.889C86.8289 11.0784 86.7417 11.1216 86.7417 11.0516C86.7417 10.9993 86.7004 10.8694 86.6499 10.763C86.3928 10.2211 85.559 10.1959 85.2158 10.7196C85.1196 10.8666 85.1127 11.0881 85.1127 14.0519C85.1127 17.1239 85.1164 17.233 85.227 17.4207C85.585 18.028 86.3457 18.1851 86.8377 17.7531C87.2425 17.3976 87.2535 17.3329 87.2549 15.308C87.2564 13.212 87.2837 13.0401 87.6773 12.6464C87.9567 12.3671 88.3591 12.2259 88.8813 12.224C89.2515 12.2227 89.6136 12.0936 89.7833 11.9026C90.2101 11.4219 90.0796 10.6765 89.5122 10.3552C89.2674 10.2164 88.7869 10.1891 88.2951 10.2859ZM100.603 10.3056C99.547 10.5494 98.814 11.0979 98.3553 11.9873C97.9645 12.745 97.7868 13.6679 97.8521 14.5997C97.9265 15.6605 98.2452 16.4178 98.8857 17.056C99.3221 17.4907 99.8645 17.7998 100.488 17.9693C101.029 18.116 102.277 18.1484 102.863 18.0309C103.642 17.8747 104.295 17.5164 104.491 17.1376C104.611 16.9071 104.597 16.5193 104.461 16.2973C104.205 15.8773 103.737 15.7779 103.159 16.0209C102.429 16.3274 101.453 16.367 100.872 16.1136C100.478 15.942 100.149 15.5711 100.06 15.1981C100.023 15.0436 100.009 14.8903 100.03 14.8573C100.054 14.8172 100.814 14.7974 102.328 14.7974C104.505 14.7974 104.598 14.793 104.779 14.6809C104.884 14.616 105.022 14.4525 105.09 14.3109C105.204 14.0749 105.209 14.0222 105.151 13.5523C105.118 13.2745 105.049 12.9074 104.998 12.7364C104.647 11.5558 103.765 10.6827 102.601 10.3653C102.133 10.2374 101.04 10.2048 100.603 10.3056ZM124.955 10.3126C122.958 10.8604 121.808 13.1291 122.415 15.3212C122.81 16.7473 123.931 17.8399 125.222 18.0577C126.201 18.2227 127.478 17.861 128.073 17.2497L128.34 16.9758L128.378 17.2129C128.513 18.0579 129.405 18.2679 129.922 17.5762C130.038 17.4211 130.04 17.362 130.04 14.1401C130.04 10.9182 130.038 10.8591 129.922 10.704C129.71 10.4211 129.511 10.3105 129.211 10.3105C128.765 10.3105 128.464 10.6171 128.381 11.1568L128.347 11.3743L128.009 11.061C127.642 10.7211 127.129 10.4401 126.636 10.309C126.249 10.206 125.337 10.208 124.955 10.3126ZM135.35 10.3096C134.856 10.4171 134.438 10.6097 134.03 10.9183C133.669 11.1919 133.612 11.2041 133.612 11.0079C133.612 10.837 133.392 10.518 133.209 10.4234C132.834 10.2292 132.279 10.388 132.096 10.7418C131.97 10.9846 131.969 20.4365 132.094 20.6791C132.258 20.9953 132.746 21.3129 133.069 21.3129C133.238 21.3129 133.574 21.176 133.733 21.0422C134.097 20.7358 134.124 20.5931 134.125 18.9662L134.126 17.5048L134.512 17.6937C135.024 17.9443 135.475 18.0585 136.098 18.0959C136.749 18.1349 137.147 18.0533 137.729 17.7618C139.274 16.9888 140.108 14.9275 139.636 13.0541C139.588 12.8655 139.445 12.4953 139.319 12.2315C139.033 11.6371 138.355 10.9237 137.803 10.6351C137.081 10.2583 136.152 10.1351 135.35 10.3096ZM51.3595 10.445C51.25 10.5033 51.0832 10.6598 50.9889 10.7928L50.8174 11.0347L50.8 14.0164C50.7882 16.0632 50.8024 17.0655 50.8455 17.2134C50.9243 17.4833 51.2154 17.8199 51.4577 17.9211C52.0584 18.1721 52.736 17.8061 52.9022 17.1409C52.9468 16.9626 52.9613 15.9987 52.9494 13.9972C52.9342 11.4348 52.9216 11.0914 52.8374 10.9392C52.712 10.7126 52.4565 10.4752 52.257 10.3999C52.0078 10.3057 51.5811 10.3272 51.3595 10.445ZM78.7163 12.3159C78.5172 12.3794 78.3404 12.501 78.1062 12.7351C77.6833 13.1581 77.5081 13.6547 77.5534 14.3026C77.693 16.301 79.8978 16.8873 80.7522 15.1532C80.9146 14.8237 80.9427 14.7017 80.9592 14.2559C80.9829 13.6154 80.8526 13.2201 80.4815 12.8074C80.0455 12.3225 79.3246 12.1217 78.7163 12.3159ZM101.006 12.3095C100.478 12.4609 100.124 12.7992 100.032 13.2399L99.9935 13.4256H101.541C103.283 13.4256 103.19 13.4537 102.98 12.9903C102.722 12.4223 101.764 12.0919 101.006 12.3095ZM125.62 12.3067C124.826 12.5653 124.363 13.3292 124.424 14.2781C124.476 15.0973 124.853 15.7283 125.468 16.0296C125.736 16.1605 125.835 16.1788 126.167 16.1587C126.83 16.1183 127.311 15.786 127.622 15.1535C127.799 14.7947 127.81 14.7344 127.81 14.1699C127.81 13.4819 127.719 13.2099 127.354 12.8058C126.936 12.3427 126.178 12.1246 125.62 12.3067ZM135.429 12.302C134.524 12.5571 133.972 13.5752 134.184 14.5999C134.309 15.2091 134.644 15.6888 135.15 15.9866C135.376 16.1192 135.476 16.1407 135.87 16.1407C136.21 16.1407 136.385 16.1117 136.554 16.0282C137.656 15.4817 137.942 13.7379 137.089 12.7662C136.714 12.339 136.003 12.1403 135.429 12.302ZM45.0662 12.3579C44.7414 12.4794 44.4697 12.667 44.3038 12.8844C43.6508 13.7406 43.7712 15.0218 44.5724 15.7422C45.2779 16.3764 46.319 16.2922 46.881 15.5554C47.4674 14.7866 47.4756 13.5387 46.899 12.8397C46.5966 12.4731 46.2692 12.321 45.7355 12.2994C45.4427 12.2876 45.1972 12.309 45.0662 12.3579Z" fill="#A1A2A2"/>
</svg>
