<svg width="120" height="24" viewBox="0 0 120 24" fill="none" xmlns="http://www.w3.org/2000/svg">
<path d="M30.153 11.021C30.0568 11.3457 30.0093 11.6768 30.0093 12.013C30.0093 12.3377 30.0568 12.656 30.153 12.9692C30.2493 13.2823 30.3969 13.5634 30.5945 13.8163C30.7935 14.0691 31.0424 14.2731 31.3428 14.4297C31.6431 14.5863 31.9986 14.6633 32.4067 14.6633C32.8277 14.6633 33.2114 14.5825 33.5605 14.4195C33.9096 14.2565 34.2035 14.037 34.4435 13.7611L35.7064 15.1318C35.3098 15.5527 34.8401 15.889 34.2998 16.1418C33.7595 16.3946 33.1267 16.5204 32.4067 16.5204C31.6867 16.5204 31.0424 16.4113 30.4765 16.1957C29.9117 15.9788 29.4356 15.6721 29.0506 15.2755C28.6655 14.8789 28.3704 14.4041 28.1676 13.8496C27.9622 13.2977 27.8608 12.6843 27.8608 12.0105C27.8608 11.397 27.9712 10.8169 28.1945 10.2702C28.4166 9.72342 28.7259 9.24599 29.1237 8.83657C29.5203 8.42844 29.999 8.10246 30.5573 7.86246C31.1169 7.62246 31.7329 7.50181 32.4054 7.50181C33.0908 7.50181 33.7158 7.62502 34.2818 7.87144C34.8465 8.11785 35.3278 8.45155 35.7244 8.87251L34.3716 10.2432C34.1304 9.96727 33.848 9.75037 33.5246 9.59379C33.1999 9.4385 32.8277 9.36021 32.4054 9.36021C31.9973 9.36021 31.6418 9.43593 31.3415 9.58609C31.0412 9.73753 30.7909 9.93133 30.5932 10.1713C30.3969 10.4139 30.2493 10.6963 30.153 11.021ZM41.1378 7.63016C40.7888 7.63016 40.4795 7.67251 40.2086 7.75593C39.9378 7.84064 39.7004 7.94331 39.4963 8.06267C39.291 8.18331 39.1139 8.3155 38.965 8.45925C38.8136 8.60299 38.6916 8.73518 38.5954 8.85582L38.5415 7.79187H36.5021V16.2509H38.6313V11.6883C38.6313 11.3765 38.6878 11.0928 38.8033 10.8413C38.9175 10.5884 39.0703 10.3715 39.2628 10.1919C39.4553 10.0122 39.6837 9.87358 39.9481 9.77732C40.2125 9.68106 40.4884 9.63358 40.7772 9.63358C40.9826 9.63358 41.1597 9.64513 41.3085 9.66951C41.4587 9.6939 41.6063 9.73625 41.75 9.79529L42.1826 7.79315C42.0144 7.73283 41.8489 7.69176 41.6872 7.66737C41.5254 7.64299 41.3419 7.63016 41.1378 7.63016ZM47.3778 13.5827L44.9612 7.79315H42.5085L46.3139 16.1803L46.0431 16.8657C45.8377 17.3713 45.6439 17.7435 45.4578 17.9848C45.2717 18.2248 45.0343 18.3454 44.7455 18.3454C44.5286 18.3454 44.349 18.3005 44.2052 18.2107C44.0615 18.1209 43.9293 18.0272 43.8086 17.9309L42.8525 19.4274C43.0925 19.6327 43.3723 19.7906 43.6906 19.9048C44.0089 20.019 44.408 20.0768 44.8893 20.0768C45.4412 20.0768 45.8993 19.9561 46.26 19.7161C46.6206 19.4749 46.9235 19.1656 47.1712 18.7869C47.4176 18.4083 47.6243 17.9964 47.7937 17.5523C47.9618 17.1069 48.1299 16.6744 48.2993 16.2535L51.8352 7.79443H49.5083L47.3778 13.5827ZM60.7973 10.4255C60.9526 10.9542 61.0309 11.5022 61.0309 12.0669C61.0309 12.7279 60.9346 13.2939 60.7421 13.7623C60.5496 14.2321 60.3096 14.6402 60.0208 14.9893C59.5396 15.5668 59.0134 15.9685 58.4422 16.1983C57.8711 16.4267 57.2846 16.541 56.6839 16.541C56.4067 16.541 56.1693 16.5294 55.9716 16.505C55.7727 16.4806 55.593 16.4485 55.4313 16.4062C55.2683 16.3638 55.1194 16.3164 54.9808 16.2625C54.8422 16.2085 54.6946 16.1521 54.5393 16.0905V19.8599H52.4294V7.79187H54.4854L54.5393 8.74802C54.6471 8.62737 54.7832 8.5016 54.9449 8.36941C55.1079 8.23721 55.2991 8.11657 55.5224 8.00876C55.7445 7.90096 55.9973 7.80984 56.2797 7.73796C56.562 7.66609 56.8777 7.63016 57.2268 7.63016C57.8762 7.63016 58.4371 7.75593 58.9132 8.00876C59.3881 8.2616 59.7821 8.59401 60.0953 9.00984C60.4059 9.42438 60.6407 9.89668 60.7973 10.4255ZM58.885 12.0682C58.885 11.7076 58.8452 11.3713 58.7669 11.0582C58.6886 10.745 58.5616 10.4729 58.3883 10.2368C58.2138 10.0032 57.9892 9.81711 57.712 9.67721C57.4347 9.5386 57.0934 9.4693 56.6839 9.4693C56.3592 9.4693 56.0653 9.5386 55.8009 9.67721C55.5366 9.81582 55.3107 9.99294 55.1246 10.2086C54.9385 10.4255 54.7935 10.6616 54.6921 10.9208C54.5907 11.1801 54.5393 11.4291 54.5393 11.6691V14.1756C54.9603 14.5247 55.5969 14.6992 56.4516 14.6992C56.8367 14.6992 57.1793 14.6235 57.4797 14.4734C57.78 14.3232 58.0367 14.1243 58.2472 13.8779C58.4576 13.6314 58.6168 13.3517 58.7246 13.0398C58.8311 12.7292 58.885 12.4032 58.885 12.0682ZM66.8307 14.5748C66.633 14.671 66.3648 14.7185 66.0285 14.7185C65.6679 14.7185 65.4061 14.5889 65.2444 14.3309C65.0827 14.0729 65.0018 13.7033 65.0018 13.222V9.52449H67.2747V7.79315H65.0018V5.05176H62.8726V7.79315H61.43V9.52449H62.8726V13.3671C62.8726 13.8368 62.9201 14.2667 63.0163 14.6556C63.1126 15.0471 63.2717 15.3807 63.4938 15.6567C63.7158 15.9339 64.0084 16.1469 64.3691 16.2971C64.7297 16.4473 65.1687 16.523 65.6859 16.523C66.1915 16.523 66.6484 16.4473 67.0566 16.2971C67.4647 16.1469 67.8805 15.898 68.3002 15.5489L67.3992 14.2308C67.217 14.3643 67.0283 14.4785 66.8307 14.5748ZM77.143 10.2727C77.365 10.8207 77.4767 11.4009 77.4767 12.013C77.4767 12.6265 77.365 13.2066 77.143 13.7534C76.9209 14.3014 76.6116 14.7814 76.2138 15.1959C75.8172 15.6118 75.3385 15.939 74.7802 16.179C74.2206 16.419 73.6046 16.5397 72.9321 16.5397C72.2583 16.5397 71.6422 16.419 71.0839 16.179C70.5244 15.939 70.0469 15.6105 69.6504 15.1959C69.2538 14.7814 68.9445 14.3001 68.7212 13.7534C68.4991 13.2066 68.3875 12.6252 68.3875 12.013C68.3875 11.3996 68.4978 10.8195 68.7212 10.2727C68.9432 9.72599 69.2525 9.24855 69.6504 8.83914C70.0469 8.43101 70.5257 8.10502 71.0839 7.86502C71.6422 7.62502 72.2596 7.50438 72.9321 7.50438C73.6046 7.50438 74.2206 7.62502 74.7802 7.86502C75.3398 8.1063 75.8172 8.42973 76.2138 8.83914C76.6104 9.24727 76.9197 9.72599 77.143 10.2727ZM75.3308 12.0143C75.3308 11.714 75.2833 11.4034 75.187 11.0851C75.0908 10.7668 74.9432 10.4781 74.7455 10.2188C74.5466 9.95957 74.2976 9.74909 73.9973 9.58738C73.697 9.42438 73.3415 9.34352 72.9334 9.34352C72.5239 9.34352 72.1697 9.42438 71.8694 9.58738C71.5691 9.75037 71.3188 9.96085 71.1212 10.2188C70.9222 10.4781 70.7759 10.7668 70.6797 11.0851C70.5834 11.4034 70.5359 11.714 70.5359 12.0143C70.5359 12.3262 70.5834 12.6394 70.6797 12.9512C70.7759 13.2631 70.9235 13.5532 71.1212 13.8175C71.3201 14.0819 71.5691 14.295 71.8694 14.4567C72.1697 14.6197 72.5252 14.7005 72.9334 14.7005C73.3415 14.7005 73.697 14.6197 73.9973 14.4567C74.2976 14.2937 74.5479 14.0819 74.7455 13.8175C74.9445 13.5532 75.0908 13.2644 75.187 12.9512C75.282 12.6394 75.3308 12.3262 75.3308 12.0143ZM87.0715 7.61219C86.734 7.61219 86.4337 7.64812 86.1693 7.71999C85.9049 7.79187 85.6662 7.88555 85.457 7.99978C85.2465 8.114 85.0655 8.23721 84.9167 8.36941C84.7652 8.5016 84.6369 8.62866 84.5291 8.74802L84.4752 7.79187H82.4371V16.2509H84.5663V11.6691C84.5663 11.3572 84.6176 11.0646 84.7203 10.7938C84.8217 10.523 84.9642 10.2868 85.1438 10.0815C85.3235 9.87614 85.5404 9.71828 85.7932 9.60406C86.0461 9.48983 86.3169 9.43208 86.6057 9.43208C87.0754 9.43208 87.4566 9.57839 87.7505 9.87358C88.0457 10.1688 88.192 10.5859 88.192 11.1275V16.2496H90.3212V11.1095C90.3212 10.0404 90.0452 9.18823 89.4921 8.55807C88.9363 7.92791 88.1291 7.61219 87.0715 7.61219ZM99.4989 10.5884C99.6427 11.166 99.7158 11.7551 99.7158 12.3557V12.6625H93.4039C93.4039 12.9743 93.4732 13.258 93.6119 13.5095C93.7505 13.7623 93.9301 13.9792 94.1522 14.1589C94.3742 14.3386 94.627 14.4772 94.9094 14.5735C95.1917 14.6697 95.4715 14.7172 95.7475 14.7172C96.1556 14.7172 96.5137 14.6774 96.8217 14.5991C97.1284 14.5209 97.3903 14.431 97.6059 14.3283C97.8215 14.2257 97.9999 14.1179 98.1372 14.0036C98.2758 13.8894 98.3811 13.7957 98.4529 13.7238L99.6067 15.0227C99.5708 15.0586 99.472 15.1574 99.309 15.3204C99.146 15.4834 98.9124 15.6541 98.6057 15.8351C98.2989 16.0148 97.9088 16.1778 97.4326 16.3215C96.9577 16.4652 96.3892 16.5384 95.7282 16.5384C95.0544 16.5384 94.4409 16.4242 93.8891 16.1957C93.3359 15.9673 92.8636 15.6515 92.4735 15.2486C92.082 14.8456 91.7817 14.3617 91.5712 13.797C91.3607 13.2323 91.2555 12.6073 91.2555 11.9206C91.2555 11.2956 91.3607 10.7155 91.5712 10.1803C91.7817 9.64513 92.0769 9.17924 92.4542 8.78267C92.8328 8.38609 93.2833 8.07294 93.8069 7.84577C94.3306 7.61861 94.9094 7.5031 95.5473 7.5031C96.316 7.5031 96.9693 7.64427 97.5045 7.92663C98.0397 8.21026 98.4696 8.5786 98.793 9.0355C99.119 9.49497 99.3552 10.0122 99.4989 10.5884ZM97.5327 11.1288C97.5327 10.9119 97.4904 10.6963 97.4069 10.4794C97.3222 10.2625 97.199 10.0674 97.0373 9.89411C96.8743 9.71957 96.6677 9.57582 96.4148 9.4616C96.162 9.34737 95.8745 9.28962 95.5485 9.28962C95.1994 9.28962 94.8901 9.34609 94.6193 9.4616C94.3485 9.57582 94.1239 9.72085 93.943 9.89411C93.762 10.0674 93.6247 10.265 93.5272 10.4794C93.4309 10.6963 93.3834 10.9119 93.3834 11.1288H97.5327ZM110.52 7.79315L108.914 13.6725L107.111 7.79315H105.326L103.54 13.6725L101.916 7.79315H99.5708L102.438 16.2522H104.422L106.1 11.148L107.831 16.2522H109.887L112.755 7.79315C112.754 7.79315 110.52 7.79315 110.52 7.79315ZM119.754 12.8165C119.622 12.5213 119.432 12.2659 119.185 12.049C118.939 11.8321 118.645 11.6524 118.302 11.5087C117.96 11.3649 117.572 11.2443 117.138 11.148C116.441 10.9799 115.927 10.8207 115.597 10.6706C115.266 10.5204 115.101 10.3125 115.101 10.0481C115.101 9.83123 115.2 9.64898 115.399 9.49753C115.598 9.34737 115.949 9.27165 116.454 9.27165C116.96 9.27165 117.398 9.34096 117.771 9.47957C118.143 9.61817 118.444 9.7709 118.673 9.93903L119.773 8.44256C119.352 8.13069 118.881 7.89582 118.358 7.73924C117.834 7.58395 117.2 7.50566 116.455 7.50566C116.035 7.50566 115.617 7.56598 115.202 7.68534C114.787 7.80598 114.414 7.97668 114.082 8.2C113.751 8.42331 113.484 8.69925 113.28 9.02909C113.075 9.36021 112.974 9.73497 112.974 10.1572C112.974 10.5653 113.061 10.917 113.235 11.2122C113.41 11.5074 113.632 11.7602 113.903 11.9694C114.174 12.1799 114.465 12.3454 114.778 12.4648C115.09 12.5854 115.392 12.6817 115.68 12.7523C116.15 12.8614 116.522 12.9628 116.799 13.059C117.075 13.1553 117.292 13.2515 117.449 13.3478C117.604 13.4441 117.708 13.5442 117.756 13.6456C117.803 13.7469 117.827 13.8586 117.827 13.9792C117.827 14.2565 117.689 14.4541 117.413 14.5735C117.136 14.6941 116.77 14.7532 116.313 14.7532C115.796 14.7532 115.336 14.6659 114.933 14.4913C114.53 14.3168 114.197 14.0973 113.932 13.8329L112.651 15.2216C113.036 15.6541 113.547 15.9814 114.185 16.2047C114.823 16.4267 115.538 16.5384 116.331 16.5384C116.824 16.5384 117.29 16.4755 117.729 16.3497C118.168 16.224 118.553 16.0456 118.882 15.8184C119.214 15.5899 119.475 15.3114 119.667 14.9803C119.859 14.6492 119.954 14.2796 119.954 13.8714C119.952 13.4633 119.886 13.1117 119.754 12.8165ZM79.62 13.7623C78.9321 13.7623 78.3764 14.3194 78.3764 15.006C78.3764 15.6939 78.9334 16.2496 79.62 16.2496C80.3066 16.2496 80.8636 15.6926 80.8636 15.006C80.8649 14.3194 80.3079 13.7623 79.62 13.7623Z" fill="#A1A2A2"/>
<path d="M12.1978 0C5.57144 0 0.197754 5.37369 0.197754 12C0.197754 18.6263 5.57144 24 12.1978 24C18.8241 24 24.1978 18.6263 24.1978 12C24.1978 5.37369 18.8253 0 12.1978 0ZM12.1978 15.6475C13.4042 15.6475 14.5323 15.0507 15.2125 14.0522C15.491 13.6441 16.0467 13.5388 16.4536 13.8173C16.8604 14.0958 16.967 14.6515 16.6884 15.0584C15.6745 16.5459 13.9958 17.4353 12.1965 17.4353C9.20096 17.4353 6.76374 14.9981 6.76374 12.0038C6.76374 9.00834 9.20096 6.57112 12.1965 6.57112C13.9945 6.57112 15.6745 7.45925 16.6884 8.94802C16.967 9.35615 16.8604 9.91187 16.4536 10.1891C16.0455 10.4676 15.4897 10.3611 15.2125 9.95422C14.5323 8.95444 13.4042 8.35893 12.1978 8.35893C10.1879 8.35893 8.55283 9.99401 8.55283 12.0038C8.55283 14.0124 10.1879 15.6475 12.1978 15.6475ZM7.01915 16.9989C8.37187 18.3991 10.1892 19.1807 12.1349 19.1987C14.0857 19.2128 15.9107 18.4672 17.2865 17.0913C18.6457 15.7322 19.3952 13.9251 19.3952 12.0038C19.3952 10.0813 18.647 8.27423 17.2865 6.91637C14.481 4.1108 9.91583 4.1108 7.10898 6.91637C5.38021 8.64513 4.64995 11.108 5.15818 13.5042C5.20182 13.7108 5.06963 13.9149 4.863 13.9572C4.65636 14.0009 4.4523 13.8687 4.40995 13.662C3.84781 11.0118 4.65508 8.28706 6.56738 6.37348C9.67198 3.26888 14.7222 3.26888 17.8268 6.37348C20.9314 9.47808 20.9314 14.5283 17.8268 17.6329C16.3214 19.1384 14.3244 19.9649 12.199 19.9649C12.1759 19.9649 12.1516 19.9649 12.1272 19.9649C9.97486 19.9457 7.96503 19.0819 6.46856 17.5328C6.32225 17.3814 6.3261 17.1375 6.47882 16.9912C6.63027 16.8424 6.87284 16.8462 7.01915 16.9989ZM6.25166 15.5256C6.25166 15.9491 5.90898 16.2918 5.48545 16.2918C5.06192 16.2918 4.71925 15.9491 4.71925 15.5256C4.71925 15.102 5.06192 14.7594 5.48545 14.7594C5.90898 14.7594 6.25166 15.102 6.25166 15.5256ZM16.9272 2.63358C17.3507 2.63358 17.6934 2.97626 17.6934 3.39978C17.6934 3.82331 17.3507 4.16599 16.9272 4.16599C16.5036 4.16599 16.161 3.82331 16.161 3.39978C16.1622 2.97626 16.5049 2.63358 16.9272 2.63358ZM19.4093 19.2128C17.4829 21.1393 14.9212 22.1994 12.199 22.1994C9.47433 22.1994 6.9139 21.138 4.98749 19.2128C3.06107 17.2864 2.00096 14.7247 2.00096 12.0013C2.00096 9.27786 3.06235 6.71615 4.98749 4.78973C7.49915 2.27808 10.9734 1.28214 14.5169 2.05604C14.7235 2.10096 14.8544 2.30503 14.8082 2.51166C14.7633 2.71829 14.5593 2.8492 14.3526 2.80299C11.0683 2.08556 7.8508 3.00577 5.52781 5.32877C3.74642 7.11016 2.76588 9.47936 2.76588 11.9987C2.76588 14.5181 3.74642 16.8873 5.52781 18.6687C7.3092 20.4501 9.6784 21.4306 12.1978 21.4306C14.7171 21.4306 17.0863 20.4488 18.8677 18.6687C20.6491 16.8873 21.6296 14.5181 21.6296 11.9987C21.6296 9.49476 20.6055 7.04855 18.8215 5.28513C18.6701 5.13626 18.6701 4.89369 18.8189 4.74353C18.9678 4.59208 19.2104 4.59209 19.3605 4.74096C21.2895 6.64684 22.3958 9.29198 22.3958 11.9987C22.3971 14.7247 21.3357 17.2864 19.4093 19.2128Z" fill="#A1A2A2"/>
</svg>
