<svg width="227" height="33" viewBox="0 0 227 33" fill="none" xmlns="http://www.w3.org/2000/svg">
<g clip-path="url(#clip0_2358_998)">
<path d="M80.6392 11.2864C80.8679 11.6369 80.9734 12.0049 80.9734 12.408C80.9734 12.8987 80.8327 13.3368 80.5336 13.6698C80.2346 14.0203 79.8476 14.1955 79.355 14.1955C78.9328 14.1955 78.581 14.0553 78.2819 13.7925C77.9829 13.5296 77.8421 13.1791 77.8421 12.7234C77.8421 12.11 78.1588 11.5843 78.8097 11.1812C78.6865 11.0059 78.4754 10.9008 78.2116 10.9008C77.4551 10.9008 76.7867 11.1812 76.1886 11.7595C75.5904 12.3379 75.1155 13.0389 74.7636 13.8801C74.4118 14.7213 74.2359 15.5099 74.2359 16.246V22.2571C74.2359 23.1334 74.4822 23.7468 74.9923 24.0798C75.4849 24.4127 76.2413 24.588 77.2616 24.588V25.1839C74.922 25.1138 73.4619 25.0787 72.8814 25.0787C72.3712 25.0787 71.2629 25.1138 69.5214 25.1839V24.588C70.0491 24.588 70.4889 24.5354 70.788 24.4127C71.1046 24.2901 71.3157 24.0798 71.474 23.7994C71.6148 23.5014 71.6851 23.0984 71.6851 22.5726V13.6698C71.6851 12.7935 71.5268 12.1626 71.2102 11.7595C70.8935 11.3565 70.3306 11.1637 69.5214 11.1637V10.5678C70.1195 10.6204 70.7 10.6554 71.2805 10.6554C72.4768 10.6554 73.4795 10.5328 74.2359 10.2699V13.81C74.447 13.2141 74.7636 12.6533 75.1507 12.0925C75.5553 11.5317 76.0302 11.076 76.5932 10.7255C77.1561 10.3575 77.7366 10.1823 78.3523 10.1823C78.8449 10.1823 79.3022 10.2874 79.6892 10.4802C80.0938 10.673 80.4105 10.9358 80.6392 11.2864ZM90.8774 10.5678V11.1286C91.6162 11.1812 92.1616 11.3039 92.4958 11.5142C92.8301 11.7245 93.006 12.0575 93.006 12.4956C93.006 12.811 92.9004 13.2492 92.7069 13.7925L89.5581 22.0118L86.1277 13.5296C85.8814 12.9337 85.7583 12.4781 85.7583 12.1276C85.7583 11.8296 85.8463 11.6018 86.0222 11.4616C86.1981 11.3214 86.4092 11.2338 86.673 11.1987C86.9369 11.1637 87.2887 11.1461 87.7637 11.1461V10.5678C86.1101 10.6905 84.8787 10.7431 84.0695 10.7431C83.102 10.7431 82.1696 10.6905 81.2725 10.5678V11.1637C81.5891 11.1637 81.9234 11.2688 82.24 11.4616C82.5567 11.6719 82.8733 12.0925 83.2075 12.7409L88.3794 25.1138L87.3591 27.7075C86.7962 29.1796 85.987 29.9157 84.9315 29.9157C84.8611 29.9157 84.8084 29.8981 84.7556 29.8806C85.2657 29.6002 85.512 29.1621 85.512 28.6013C85.512 28.1807 85.3713 27.8477 85.1074 27.6199C84.826 27.392 84.4917 27.2694 84.0695 27.2694C83.5946 27.2694 83.2251 27.4096 82.9613 27.6724C82.6974 27.9528 82.5567 28.3033 82.5567 28.759C82.5567 29.3023 82.7326 29.7054 83.102 30.0208C83.4714 30.3187 83.9288 30.4765 84.4917 30.4765C85.4417 30.4765 86.1805 30.2311 86.7258 29.7404C87.1832 29.3373 87.5878 28.6714 87.9396 27.7425L88.9072 25.2715L93.5865 13.1265C93.8504 12.4255 94.1318 11.9348 94.4133 11.6369C94.7123 11.3389 95.0466 11.1637 95.4336 11.1286V10.5678C94.8355 10.6204 94.1142 10.6554 93.2698 10.6554C92.6717 10.6379 91.8801 10.6204 90.8774 10.5678ZM110.21 13.4069C110.668 14.4759 110.896 15.7378 110.896 17.2099C110.896 18.6645 110.668 20.0139 110.193 21.2933C109.718 22.5726 109.014 23.5891 108.029 24.3777C107.044 25.1663 105.83 25.5694 104.37 25.5694C103.649 25.5694 102.998 25.4292 102.4 25.1488C101.819 24.8684 101.362 24.5004 101.028 24.0272V27.6549C101.028 28.426 101.256 28.9518 101.714 29.2497C102.171 29.5476 102.857 29.7054 103.772 29.7054V30.3012C103.526 30.2837 102.998 30.2662 102.154 30.2311C101.309 30.1961 100.482 30.1785 99.6731 30.1785C99.075 30.1785 98.4417 30.1961 97.8084 30.2311C97.1751 30.2662 96.7705 30.2837 96.5946 30.3012V29.7054C97.2983 29.7054 97.7733 29.5827 98.0547 29.3198C98.3362 29.0569 98.4769 28.6013 98.4769 27.9353V13.6698C98.4769 12.7935 98.3186 12.1626 98.0019 11.7595C97.6853 11.3565 97.1224 11.1637 96.3132 11.1637V10.5678C96.9113 10.6204 97.4918 10.6554 98.0723 10.6554C99.2685 10.6554 100.271 10.5328 101.028 10.2699V13.2667C101.45 12.2853 102.066 11.5317 102.857 11.0059C103.649 10.4627 104.564 10.1998 105.584 10.1998C106.587 10.1998 107.501 10.4802 108.293 11.0235C109.12 11.5317 109.753 12.3379 110.21 13.4069ZM108.135 17.5954C108.135 13.2141 107.026 11.0235 104.827 11.0235C103.965 11.0235 103.191 11.3389 102.505 11.9523C101.819 12.5657 101.327 13.4595 101.045 14.6161V23.0984C101.327 23.6592 101.714 24.1148 102.224 24.4303C102.734 24.7632 103.35 24.921 104.053 24.921C106.78 24.921 108.135 22.485 108.135 17.5954ZM120.994 23.8344C120.572 24.3076 120.079 24.5354 119.481 24.5354C118.883 24.5354 118.426 24.3426 118.127 23.9746C117.828 23.6066 117.669 22.9757 117.669 22.1345V11.1637H121.874V10.5853H117.669V5.85353C117.036 6.09888 116.174 6.22156 115.118 6.25661V10.5853H112.374V11.1461H115.118V20.6448C115.118 21.6788 115.206 22.485 115.365 23.0808C115.523 23.6942 115.822 24.2024 116.227 24.6055C116.543 24.921 116.913 25.1663 117.335 25.3241C117.757 25.4818 118.285 25.5519 118.918 25.5519C120.924 25.5519 122.155 24.2375 122.612 21.6262L122.049 21.486C121.768 22.5901 121.416 23.3788 120.994 23.8344ZM136.316 13.5296C136.879 14.6862 137.161 16.1233 137.161 17.8934C137.161 19.6459 136.879 21.1005 136.316 22.2396C135.753 23.3788 134.997 24.22 134.029 24.7633C133.062 25.3065 131.953 25.5694 130.704 25.5694C129.455 25.5694 128.347 25.3065 127.38 24.7633C126.412 24.22 125.656 23.3788 125.093 22.2396C124.53 21.1005 124.248 19.6459 124.248 17.8934C124.248 16.1408 124.53 14.6862 125.093 13.5296C125.656 12.3904 126.412 11.5317 127.38 10.9884C128.347 10.4451 129.455 10.1647 130.704 10.1647C131.953 10.1647 133.062 10.4451 134.029 10.9884C134.979 11.5317 135.753 12.3904 136.316 13.5296ZM134.381 17.8934C134.381 15.4574 134.047 13.6523 133.378 12.4956C132.71 11.3389 131.813 10.7606 130.669 10.7606C129.526 10.7606 128.629 11.3389 127.96 12.4956C127.292 13.6523 126.957 15.4574 126.957 17.8934C126.957 20.3294 127.292 22.1169 127.96 23.2736C128.629 24.4303 129.526 25.0086 130.669 25.0086C131.813 25.0086 132.71 24.4303 133.378 23.2736C134.047 22.0994 134.381 20.3118 134.381 17.8934ZM5.36539 21.0479C5.10152 21.3458 4.78487 21.486 4.41545 21.486C4.04603 21.486 3.76457 21.3634 3.57106 21.1355C3.37756 20.9077 3.2896 20.5221 3.2896 19.9964V13.1791H5.91073V12.8286H3.2896V9.88433C2.885 10.0421 2.35725 10.1122 1.70637 10.1297V12.8286H0V13.1791H1.70637V19.0851C1.70637 19.716 1.75914 20.2242 1.86469 20.6098C1.97024 20.9953 2.14616 21.3108 2.39244 21.5561C2.60353 21.7489 2.81463 21.9066 3.0785 21.9943C3.34237 22.0819 3.65902 22.1345 4.06362 22.1345C5.31262 22.1345 6.06905 21.3283 6.3681 19.6985L6.01627 19.6108C5.84036 20.2768 5.61167 20.7675 5.36539 21.0479ZM15.1111 21.0129C15.0231 20.8376 14.9703 20.5747 14.9703 20.2417V15.545C14.9703 14.9491 14.9175 14.4759 14.8296 14.1254C14.7416 13.7749 14.5833 13.477 14.3546 13.2317C13.9324 12.7935 13.2991 12.5657 12.4723 12.5657C11.8215 12.5657 11.2233 12.7234 10.6956 13.0564C10.1679 13.3894 9.76325 13.9151 9.4642 14.6687V8.07923C9.00682 8.25449 8.39112 8.32459 7.6171 8.32459C7.26527 8.32459 6.89585 8.30706 6.52643 8.27201V8.64004C7.03658 8.64004 7.37082 8.76272 7.58191 9.00807C7.77542 9.25342 7.88097 9.63898 7.88097 10.1823V20.2242C7.88097 20.5572 7.82819 20.8025 7.74024 20.9953C7.65228 21.1706 7.51155 21.3108 7.31804 21.3809C7.12454 21.451 6.86066 21.486 6.52643 21.486V21.8541C7.5995 21.8015 8.32075 21.784 8.65499 21.784C8.98923 21.784 9.64011 21.8015 10.6252 21.8541V21.486C10.3262 21.486 10.0975 21.451 9.93917 21.3809C9.78084 21.3283 9.6577 21.1881 9.58734 21.0129C9.51697 20.8376 9.4642 20.5747 9.4642 20.2417V16.3161C9.4642 15.7027 9.56975 15.1594 9.78084 14.6687C9.99194 14.178 10.291 13.81 10.6604 13.5296C11.0474 13.2667 11.4696 13.1265 11.9446 13.1265C12.3492 13.1265 12.6482 13.2141 12.8593 13.3894C13.0704 13.5646 13.2112 13.7925 13.2815 14.0904C13.3519 14.3708 13.3871 14.7388 13.3871 15.1594V20.2417C13.3871 20.5747 13.3519 20.8201 13.2639 21.0129C13.176 21.1881 13.0704 21.3283 12.8945 21.3984C12.7186 21.4685 12.4899 21.5036 12.2085 21.5036V21.8716C13.1936 21.819 13.8621 21.8015 14.1963 21.8015C14.5129 21.8015 15.2166 21.819 16.3249 21.8716V21.5036C15.9906 21.5036 15.7268 21.4685 15.5332 21.3984C15.3397 21.3283 15.199 21.1881 15.1111 21.0129ZM24.3993 19.6284L24.7512 19.7686C24.6104 20.1716 24.3993 20.5747 24.0827 20.9252C23.7836 21.2933 23.4142 21.5737 22.9568 21.8015C22.4995 22.0293 22.0069 22.1345 21.444 22.1345C20.5996 22.1345 19.8783 21.9417 19.2626 21.5561C18.6469 21.1706 18.1896 20.6448 17.8553 19.9438C17.5387 19.2603 17.3803 18.4542 17.3803 17.5604C17.3803 16.5439 17.5387 15.6501 17.8729 14.8965C18.2071 14.143 18.6645 13.5646 19.2626 13.1616C19.8607 12.7585 20.5644 12.5482 21.3736 12.5482C22.4291 12.5482 23.2559 12.8636 23.8188 13.5121C24.3993 14.1605 24.6808 15.1244 24.6808 16.4212H19.1571C19.1219 16.7192 19.1043 17.1047 19.1043 17.5429C19.1043 18.314 19.2274 18.9975 19.4913 19.5758C19.7552 20.1541 20.0894 20.5922 20.494 20.9077C20.9162 21.2232 21.3384 21.3809 21.8134 21.3809C22.992 21.3809 23.854 20.8025 24.3993 19.6284ZM19.1395 16.1058H22.992C23.0096 15.5275 22.9568 14.9842 22.8513 14.4935C22.7281 14.0028 22.5346 13.6172 22.2708 13.3368C22.0069 13.0564 21.6903 12.9162 21.3208 12.9162C20.9514 12.9162 20.6172 13.0389 20.3181 13.2667C20.0191 13.4945 19.7552 13.8626 19.5441 14.3357C19.333 14.7914 19.1923 15.3873 19.1395 16.1058ZM152.342 23.7643C152.201 23.4664 152.131 23.0633 152.131 22.5375V14.9666C152.131 14.0028 152.06 13.2492 151.902 12.6708C151.744 12.0925 151.498 11.6193 151.146 11.2338C150.46 10.5328 149.457 10.1647 148.12 10.1647C147.047 10.1647 146.097 10.4276 145.253 10.9709C144.408 11.5142 143.74 12.3729 143.265 13.5822V10.2524C142.491 10.5152 141.506 10.6379 140.309 10.6379C139.729 10.6379 139.131 10.6029 138.55 10.5503V11.1461C139.359 11.1461 139.922 11.3389 140.239 11.742C140.556 12.1451 140.714 12.776 140.714 13.6523V22.52C140.714 23.0458 140.644 23.4489 140.503 23.7468C140.362 24.0447 140.133 24.255 139.817 24.3602C139.5 24.4828 139.078 24.5354 138.55 24.5354V25.1313C140.292 25.0612 141.435 25.0261 141.963 25.0261C142.508 25.0261 143.564 25.0612 145.165 25.1313V24.5354C144.69 24.5354 144.32 24.4828 144.056 24.3602C143.792 24.2375 143.581 24.0272 143.458 23.7468C143.335 23.4489 143.265 23.0458 143.265 22.52V16.246C143.265 15.2821 143.441 14.4058 143.757 13.6172C144.092 12.8286 144.566 12.2152 145.165 11.7595C145.78 11.3039 146.466 11.076 147.24 11.076C147.891 11.076 148.384 11.2162 148.718 11.4967C149.052 11.7771 149.281 12.1626 149.387 12.6183C149.492 13.0739 149.545 13.6523 149.545 14.3357V22.5375C149.545 23.0633 149.475 23.4664 149.351 23.7643C149.228 24.0622 149.035 24.2725 148.771 24.3777C148.507 24.5004 148.138 24.5529 147.663 24.5529V25.1488C149.263 25.0787 150.319 25.0437 150.847 25.0437C151.392 25.0437 152.518 25.0787 154.259 25.1488V24.5529C153.714 24.5529 153.292 24.5004 152.993 24.3777C152.711 24.2725 152.483 24.0622 152.342 23.7643ZM168.139 13.5296C168.702 14.6862 168.983 16.1233 168.983 17.8934C168.983 19.6459 168.702 21.1005 168.139 22.2396C167.576 23.3788 166.82 24.22 165.852 24.7633C164.885 25.3065 163.776 25.5694 162.527 25.5694C161.278 25.5694 160.17 25.3065 159.203 24.7633C158.235 24.22 157.479 23.3788 156.916 22.2396C156.353 21.1005 156.071 19.6459 156.071 17.8934C156.071 16.1408 156.353 14.6862 156.916 13.5296C157.479 12.3904 158.235 11.5317 159.203 10.9884C160.17 10.4451 161.278 10.1647 162.527 10.1647C163.776 10.1647 164.885 10.4451 165.852 10.9884C166.82 11.5317 167.576 12.3904 168.139 13.5296ZM166.222 17.8934C166.222 15.4574 165.887 13.6523 165.219 12.4956C164.55 11.3389 163.653 10.7606 162.51 10.7606C161.366 10.7606 160.469 11.3389 159.801 12.4956C159.132 13.6523 158.798 15.4574 158.798 17.8934C158.798 20.3294 159.132 22.1169 159.801 23.2736C160.469 24.4303 161.366 25.0086 162.51 25.0086C163.653 25.0086 164.55 24.4303 165.219 23.2736C165.887 22.0994 166.222 20.3118 166.222 17.8934ZM193.207 23.7643C193.066 23.4664 192.996 23.0633 192.996 22.5375V14.9666C192.996 14.0378 192.925 13.2842 192.785 12.6884C192.644 12.11 192.398 11.6193 192.063 11.2338C191.377 10.5328 190.392 10.1647 189.108 10.1647C188.088 10.1647 187.155 10.4276 186.329 10.9534C185.502 11.4791 184.833 12.3379 184.376 13.5296C184.27 12.5306 183.971 11.7595 183.496 11.2513C182.81 10.5503 181.825 10.1823 180.541 10.1823C179.556 10.1823 178.641 10.4627 177.814 11.0235C176.988 11.5843 176.337 12.443 175.862 13.5997V10.2699C175.088 10.5328 174.103 10.6554 172.906 10.6554C172.326 10.6554 171.728 10.6204 171.147 10.5678V11.1637C171.956 11.1637 172.519 11.3565 172.836 11.7595C173.153 12.1626 173.311 12.7935 173.311 13.6698V22.5375C173.311 23.0633 173.241 23.4664 173.1 23.7643C172.959 24.0622 172.73 24.2725 172.414 24.3777C172.097 24.5004 171.675 24.5529 171.147 24.5529V25.1488C172.889 25.0787 174.032 25.0437 174.56 25.0437C175.105 25.0437 176.161 25.0787 177.762 25.1488V24.5529C177.287 24.5529 176.917 24.5004 176.653 24.3777C176.389 24.255 176.196 24.0447 176.055 23.7643C175.932 23.4664 175.862 23.0633 175.862 22.5375V16.246C175.862 15.2996 176.038 14.4234 176.372 13.6347C176.706 12.8461 177.163 12.2152 177.744 11.7595C178.324 11.3039 178.993 11.076 179.714 11.076C180.348 11.076 180.822 11.2162 181.139 11.4967C181.456 11.7771 181.649 12.1451 181.737 12.5832C181.825 13.0389 181.86 13.6172 181.86 14.3357V22.5375C181.86 23.0633 181.808 23.4664 181.684 23.7643C181.561 24.0622 181.368 24.2725 181.104 24.3777C180.84 24.5004 180.471 24.5529 179.996 24.5529V25.1488C181.579 25.0787 182.652 25.0437 183.197 25.0437C183.725 25.0437 184.868 25.0787 186.592 25.1488V24.5529C186.065 24.5529 185.643 24.5004 185.326 24.3777C185.027 24.255 184.798 24.0447 184.657 23.7643C184.517 23.4664 184.446 23.0633 184.446 22.5375V16.2109C184.446 15.2646 184.605 14.3883 184.939 13.6172C185.273 12.8461 185.73 12.2152 186.311 11.7595C186.892 11.3039 187.542 11.076 188.264 11.076C188.915 11.076 189.389 11.2162 189.706 11.4967C190.023 11.7771 190.216 12.1451 190.304 12.5832C190.392 13.0389 190.427 13.6172 190.427 14.3357V22.5375C190.427 23.0633 190.357 23.4664 190.234 23.7643C190.111 24.0622 189.917 24.2725 189.653 24.3777C189.389 24.5004 189.02 24.5529 188.545 24.5529V25.1488C190.146 25.0787 191.201 25.0437 191.729 25.0437C192.257 25.0437 193.4 25.0787 195.142 25.1488V24.5529C194.597 24.5529 194.174 24.5004 193.875 24.3777C193.576 24.2725 193.348 24.0622 193.207 23.7643ZM201.352 23.7643C201.211 23.4664 201.141 23.0633 201.141 22.5375V10.2524C200.367 10.5152 199.381 10.6379 198.185 10.6379C197.605 10.6379 197.007 10.6029 196.426 10.5503V11.1461C197.235 11.1461 197.798 11.3389 198.115 11.742C198.432 12.1451 198.59 12.776 198.59 13.6523V22.52C198.59 23.0458 198.519 23.4489 198.379 23.7468C198.238 24.0447 198.009 24.255 197.693 24.3602C197.376 24.4828 196.954 24.5354 196.426 24.5354V25.1313C198.168 25.0612 199.311 25.0261 199.874 25.0261C200.437 25.0261 201.58 25.0612 203.322 25.1313V24.5354C202.777 24.5354 202.354 24.4828 202.055 24.3602C201.721 24.2725 201.492 24.0622 201.352 23.7643ZM198.766 6.85247C199.047 7.0102 199.346 7.09782 199.68 7.09782C199.997 7.09782 200.314 7.02772 200.578 6.85247C200.859 6.69474 201.088 6.46691 201.246 6.18651C201.404 5.90611 201.492 5.60818 201.492 5.2752C201.492 4.95974 201.404 4.64429 201.246 4.38141C201.088 4.10101 200.859 3.89071 200.578 3.71545C200.296 3.55773 199.997 3.4701 199.68 3.4701C199.364 3.4701 199.047 3.55773 198.766 3.71545C198.484 3.89071 198.256 4.10101 198.097 4.38141C197.939 4.66182 197.851 4.95974 197.851 5.2752C197.851 5.59065 197.939 5.90611 198.097 6.18651C198.256 6.48444 198.484 6.69474 198.766 6.85247ZM213.507 18.1387C212.98 17.7006 212.276 17.1924 211.396 16.6315C211.133 16.4563 210.675 16.1759 210.042 15.7728C209.409 15.3697 208.863 14.9666 208.423 14.5285C207.984 14.0904 207.755 13.5471 207.755 12.8811C207.755 12.1977 207.966 11.6719 208.406 11.2864C208.846 10.9008 209.409 10.708 210.095 10.708C211.273 10.708 212.153 11.1111 212.769 11.9348C213.367 12.7409 213.771 13.7749 213.982 15.0192H214.616C214.616 12.7234 214.651 11.1286 214.721 10.1998H214.07C213.982 11.0235 213.771 11.4441 213.437 11.4441C213.314 11.4441 213.138 11.374 212.944 11.2162C212.61 10.9534 212.17 10.708 211.643 10.4977C211.115 10.2874 210.517 10.1823 209.848 10.1823C209.074 10.1823 208.371 10.3225 207.72 10.5853C207.087 10.8482 206.576 11.2688 206.207 11.8121C205.82 12.3554 205.644 13.0389 205.644 13.845C205.644 14.5811 205.82 15.2295 206.154 15.7728C206.488 16.3161 206.911 16.7893 207.403 17.1573C207.896 17.5429 208.617 18.016 209.549 18.6119C210.323 19.0851 210.921 19.4882 211.344 19.8211C211.766 20.1541 212.118 20.5221 212.382 20.9252C212.645 21.3458 212.769 21.8015 212.769 22.3097C212.769 22.9406 212.645 23.4664 212.399 23.8695C212.153 24.2725 211.836 24.5529 211.449 24.7457C211.062 24.921 210.658 25.0086 210.253 25.0086C209.338 25.0086 208.617 24.7983 208.089 24.3777C207.544 23.9571 207.157 23.3612 206.893 22.6076C206.629 21.8541 206.436 20.8902 206.295 19.716H205.644C205.644 22.4149 205.609 24.2901 205.538 25.3766H206.189C206.295 24.6581 206.488 24.3076 206.77 24.3076C206.875 24.3076 206.963 24.3426 207.034 24.4127C207.438 24.7282 207.825 24.9911 208.195 25.1663C208.846 25.4292 209.602 25.5694 210.446 25.5694C211.326 25.5694 212.135 25.4117 212.874 25.1138C213.613 24.7983 214.211 24.3602 214.651 23.7643C215.091 23.1685 215.319 22.4499 215.319 21.6087C215.319 20.8727 215.161 20.2242 214.827 19.6634C214.475 19.0851 214.035 18.5768 213.507 18.1387ZM226.437 21.5211C226.156 22.6076 225.804 23.3788 225.382 23.8519C224.959 24.3251 224.467 24.5529 223.869 24.5529C223.271 24.5529 222.813 24.3602 222.514 23.9921C222.215 23.6241 222.057 22.9932 222.057 22.152V11.1637H226.261V10.5853H222.057V5.85353C221.424 6.09888 220.562 6.22156 219.506 6.25661V10.5853H216.762V11.1461H219.506V20.6448C219.506 21.6788 219.594 22.485 219.752 23.0808C219.911 23.6942 220.21 24.2024 220.614 24.6055C220.931 24.921 221.318 25.1663 221.723 25.3241C222.145 25.4818 222.673 25.5519 223.306 25.5519C225.311 25.5519 226.543 24.2375 227 21.6262L226.437 21.5211ZM66.8123 25.3766C63.9801 29.7755 59.1073 32.7547 53.5308 32.9826C43.9258 33.3506 35.9921 25.4467 36.3791 15.878C36.6078 9.93691 40.0205 4.80202 44.9637 2.10313C45.1748 1.98046 45.3683 2.26086 45.1924 2.41859C41.3575 5.90611 39.2641 11.2864 40.4076 17.0872C40.8825 19.5232 41.9556 21.7489 43.4509 23.6241C43.9082 22.7829 44.8054 21.7314 44.823 20.3469C44.8582 16.4738 44.8582 12.6183 44.8406 8.74519C44.8406 8.09676 45.0165 7.6411 45.5267 7.2205C48.3941 4.87212 51.2263 2.48869 54.0937 0.157832C54.3048 -0.0174199 54.7974 -0.0524703 55.0436 0.0877315C56.9787 1.1743 64.5078 3.71545 65.3346 3.80308C65.4754 3.8206 65.7216 4.03091 65.4402 4.27626C65.4402 4.27626 63.2061 6.50196 61.9923 7.72873C61.7812 7.93903 61.5173 7.88646 61.3062 7.81636C60.0748 7.39575 58.1925 6.62464 56.5213 5.95868V15.8955H57.7703V17.1398H56.4685V29.46C60.3562 29.2672 63.8921 27.6724 66.5133 25.1488C66.6892 24.956 66.9354 25.1663 66.8123 25.3766ZM51.9124 17.1047H49.6255C49.1857 18.9449 48.2357 20.4696 46.7405 21.8541C46.2479 22.3097 44.9989 23.5014 44.3832 24.0973C44.2425 24.2375 44.2249 24.4653 44.348 24.623C44.4008 24.6756 44.4536 24.7282 44.5064 24.7808C44.6119 24.8859 44.7175 24.9911 44.8054 25.0787C44.9813 25.254 45.1748 25.4292 45.3683 25.5869C45.4739 25.6746 45.5794 25.7622 45.685 25.8498C45.8081 25.955 45.9313 26.0601 46.0544 26.1477C47.1099 26.9539 48.3237 27.6549 49.5375 28.1807C50.2412 28.4786 50.98 28.7239 51.7364 28.9167C51.8244 28.8992 51.9124 28.8116 51.9124 28.7064V17.1047ZM51.9299 4.43399C51.9299 4.24121 51.7364 4.15358 51.5605 4.25874C51.5605 4.25874 51.2263 4.46904 51.0504 4.55666C50.1708 5.08242 49.8366 5.90611 49.8717 6.95762L49.9069 14.3182C49.9245 14.8615 49.8893 15.3522 49.819 15.8604H51.8948L51.9299 4.43399ZM55.1844 17.1047H53.1789C53.1789 20.9252 53.1789 24.7282 53.1613 28.2157C53.1613 28.9167 53.3197 29.2322 54.0057 29.3549C54.4103 29.3899 54.7974 29.425 55.1844 29.4425V17.1047ZM55.1844 5.4154C54.7974 5.25767 54.4279 5.135 54.1113 5.01232C54.0409 4.99479 53.865 4.92469 53.7946 4.90717C53.3021 4.74944 53.1613 4.97727 53.1613 5.24015C53.1613 5.4154 53.1613 5.57313 53.1613 5.73085C53.1613 8.90292 53.1613 12.3554 53.1613 15.8429H55.1668V5.4154H55.1844Z" fill="white"/>
</g>
<defs>
<clipPath id="clip0_2358_998">
<rect width="227" height="33" fill="white"/>
</clipPath>
</defs>
</svg>
